<svg width="252" height="48" viewBox="0 0 252 48" fill="none" xmlns="http://www.w3.org/2000/svg">
<path d="M96.8752 21.2307V45.2307H91.9515V28.4887L85.66 45.2307H81.3714L75.0753 28.5567V45.2307H70.1191V21.2307H76.1463L83.5969 39.2829L90.913 21.2307H96.8752Z" fill="#174516"/>
<path d="M106.745 24.2597V30.7209H116.078V34.5334H106.745V41.2413H117.173V45.2307H101.489V20.3076H117.173V24.2597H106.745Z" fill="#174516"/>
<path d="M138.394 20.3076V24.2597H131.265V45.2307H126.113V24.283H119.018V20.3076H138.394Z" fill="#174516"/>
<path d="M156.066 40.3482H145.69L143.857 45.2307H138.394L147.904 21.2307H153.808L163.304 45.2307H157.841L156.066 40.3482ZM154.674 36.6671L150.859 26.426L147.044 36.6671H154.674Z" fill="#174516"/>
<path d="M171.183 35.9811V45.2307H166.072V20.3076H175.389C178.411 20.3076 180.688 21.0136 182.221 22.4257C183.754 23.8377 184.522 25.7556 184.525 28.1793C184.525 30.558 183.731 32.448 182.135 33.8631C180.538 35.2782 178.31 35.9811 175.375 35.9811H171.183ZM179.338 28.1793C179.375 27.658 179.301 27.1348 179.12 26.6428C178.939 26.1509 178.655 25.7008 178.286 25.3211C177.588 24.6601 176.436 24.3296 174.844 24.3296H171.183V31.9918H174.84C177.842 31.9918 179.341 30.7209 179.338 28.1793Z" fill="#174516"/>
<path d="M205.858 21.8941C207.81 22.9397 209.417 24.4715 210.505 26.3214C211.62 28.3049 212.204 30.5154 212.204 32.7601C212.204 35.0047 211.62 37.2152 210.505 39.1987C209.419 41.0547 207.812 42.5929 205.858 43.6442C203.845 44.685 201.586 45.2307 199.289 45.2307C196.992 45.2307 194.733 44.685 192.72 43.6442C190.765 42.5942 189.157 41.0557 188.073 39.1987C186.955 37.2161 186.37 35.0052 186.37 32.7601C186.37 30.5149 186.955 28.3041 188.073 26.3214C189.159 24.4705 190.767 22.9384 192.72 21.8941C194.733 20.8533 196.992 20.3076 199.289 20.3076C201.586 20.3076 203.845 20.8533 205.858 21.8941ZM195.277 25.7759C194.113 26.4361 193.177 27.4011 192.585 28.5532C191.945 29.8788 191.615 31.3178 191.615 32.7737C191.615 34.2296 191.945 35.6686 192.585 36.9942C193.177 38.1463 194.113 39.1113 195.277 39.7715C196.499 40.4037 197.871 40.7351 199.265 40.7351C200.659 40.7351 202.031 40.4037 203.253 39.7715C204.415 39.1096 205.348 38.145 205.94 36.9942C206.58 35.6686 206.91 34.2296 206.91 32.7737C206.91 31.3178 206.58 29.8788 205.94 28.5532C205.348 27.4024 204.415 26.4378 203.253 25.7759C202.031 25.1437 200.659 24.8123 199.265 24.8123C197.871 24.8123 196.499 25.1437 195.277 25.7759Z" fill="#174516"/>
<path d="M220.472 41.4182H229.733V45.2307H214.971V20.3076H220.472V41.4182Z" fill="#174516"/>
<path d="M251.876 20.3076L243.356 36.5118V45.2307H238.292V36.5118L229.733 20.3076H235.512L240.859 31.2144L246.21 20.3076H251.876Z" fill="#174516"/>
<path d="M38.0246 46.4014H35.9121V48.0001H38.0246V46.4014Z" fill="#2D672D"/>
<path d="M35.9118 46.4014H33.7993V48.0001H35.9118V46.4014Z" fill="#2D672D"/>
<path d="M33.7995 46.4014H31.687V48.0001H33.7995V46.4014Z" fill="#46A949"/>
<path d="M31.6872 46.4014H29.5747V48.0001H31.6872V46.4014Z" fill="#2D9B31"/>
<path d="M29.5744 46.4014H27.4619V48.0001H29.5744V46.4014Z" fill="#2C8B2F"/>
<path d="M27.4621 46.4014H25.3496V48.0001H27.4621V46.4014Z" fill="#2C8B2F"/>
<path d="M25.3498 46.4014H23.2373V48.0001H25.3498V46.4014Z" fill="#1E8021"/>
<path d="M23.237 46.4014H21.1245V48.0001H23.237V46.4014Z" fill="#2C8B2F"/>
<path d="M21.1247 46.4014H19.0122V48.0001H21.1247V46.4014Z" fill="#1E8021"/>
<path d="M19.0124 46.4014H16.8999V48.0001H19.0124V46.4014Z" fill="#2C8B2F"/>
<path d="M16.8997 46.4014H14.7872V48.0001H16.8997V46.4014Z" fill="#20571F"/>
<path d="M54.924 44.7988H52.8115V46.3976H54.924V44.7988Z" fill="#2C8B2F"/>
<path d="M52.8117 44.7988H50.6992V46.3976H52.8117V44.7988Z" fill="#2C8B2F"/>
<path d="M50.6994 44.7988H48.5869V46.3976H50.6994V44.7988Z" fill="#2C8B2F"/>
<path d="M48.5866 44.7988H46.4741V46.3976H48.5866V44.7988Z" fill="#255125"/>
<path d="M46.4743 44.7988H44.3618V46.3976H46.4743V44.7988Z" fill="#143214"/>
<path d="M44.362 44.7988H42.2495V46.3976H44.362V44.7988Z" fill="#174516"/>
<path d="M42.2493 44.7988H40.1368V46.3976H42.2493V44.7988Z" fill="#174516"/>
<path d="M40.1369 44.7988H38.0244V46.3976H40.1369V44.7988Z" fill="#174516"/>
<path d="M38.0246 44.7988H35.9121V46.3976H38.0246V44.7988Z" fill="#174516"/>
<path d="M35.9118 44.7988H33.7993V46.3976H35.9118V44.7988Z" fill="#174516"/>
<path d="M33.7995 44.7988H31.687V46.3976H33.7995V44.7988Z" fill="#2C8B2F"/>
<path d="M31.6872 44.7988H29.5747V46.3976H31.6872V44.7988Z" fill="#1E8021"/>
<path d="M29.5744 44.7988H27.4619V46.3976H29.5744V44.7988Z" fill="#2C8B2F"/>
<path d="M27.4621 44.7988H25.3496V46.3976H27.4621V44.7988Z" fill="#1E8021"/>
<path d="M25.3498 44.7988H23.2373V46.3976H25.3498V44.7988Z" fill="#2C8B2F"/>
<path d="M23.237 44.7988H21.1245V46.3976H23.237V44.7988Z" fill="#1E8021"/>
<path d="M21.1247 44.7988H19.0122V46.3976H21.1247V44.7988Z" fill="#2C8B2F"/>
<path d="M19.0124 44.7988H16.8999V46.3976H19.0124V44.7988Z" fill="#2C8B2F"/>
<path d="M16.8997 44.7988H14.7872V46.3976H16.8997V44.7988Z" fill="#20571F"/>
<path d="M14.7873 44.7988H12.6748V46.3976H14.7873V44.7988Z" fill="#20571F"/>
<path d="M12.6745 44.7988H10.562V46.3976H12.6745V44.7988Z" fill="#20571F"/>
<path d="M54.924 43.2002H52.8115V44.7989H54.924V43.2002Z" fill="#2C8B2F"/>
<path d="M52.8117 43.2H50.6992V44.7987H52.8117V43.2Z" fill="#1E8021"/>
<path d="M50.6994 43.2002H48.5869V44.7989H50.6994V43.2002Z" fill="#2C8B2F"/>
<path d="M48.5866 43.2002H46.4741V44.7989H48.5866V43.2002Z" fill="#255125"/>
<path d="M46.4743 43.2H44.3618V44.7987H46.4743V43.2Z" fill="#143214"/>
<path d="M44.362 43.2002H42.2495V44.7989H44.362V43.2002Z" fill="#174516"/>
<path d="M42.2493 43.2H40.1368V44.7987H42.2493V43.2Z" fill="#174516"/>
<path d="M40.1369 43.2H38.0244V44.7987H40.1369V43.2Z" fill="#174516"/>
<path d="M38.0246 43.2002H35.9121V44.7989H38.0246V43.2002Z" fill="#174516"/>
<path d="M35.9118 43.2H33.7993V44.7987H35.9118V43.2Z" fill="#174516"/>
<path d="M33.7995 43.2H31.687V44.7987H33.7995V43.2Z" fill="#2C8B2F"/>
<path d="M31.6872 43.2002H29.5747V44.7989H31.6872V43.2002Z" fill="#2C8B2F"/>
<path d="M29.5744 43.2002H27.4619V44.7989H29.5744V43.2002Z" fill="#2C8B2F"/>
<path d="M27.4621 43.2H25.3496V44.7987H27.4621V43.2Z" fill="#2C8B2F"/>
<path d="M25.3498 43.2002H23.2373V44.7989H25.3498V43.2002Z" fill="#2C8B2F"/>
<path d="M23.237 43.2002H21.1245V44.7989H23.237V43.2002Z" fill="#2C8B2F"/>
<path d="M21.1247 43.2H19.0122V44.7987H21.1247V43.2Z" fill="#1E8021"/>
<path d="M19.0124 43.2002H16.8999V44.7989H19.0124V43.2002Z" fill="#2C8B2F"/>
<path d="M16.8997 43.2H14.7872V44.7987H16.8997V43.2Z" fill="#174516"/>
<path d="M14.7873 43.2H12.6748V44.7987H14.7873V43.2Z" fill="#20571F"/>
<path d="M12.6745 43.2002H10.562V44.7989H12.6745V43.2002Z" fill="#20571F"/>
<path d="M10.5622 43.2002H8.44971V44.7989H10.5622V43.2002Z" fill="#174516"/>
<path d="M8.44987 43.2H6.3374V44.7987H8.44987V43.2Z" fill="#20571F"/>
<path d="M54.924 41.6011H52.8115V43.1998H54.924V41.6011Z" fill="#2C8B2F"/>
<path d="M52.8117 41.6013H50.6992V43.2001H52.8117V41.6013Z" fill="#2C8B2F"/>
<path d="M50.6994 41.6011H48.5869V43.1998H50.6994V41.6011Z" fill="#2C8B2F"/>
<path d="M48.5866 41.6011H46.4741V43.1998H48.5866V41.6011Z" fill="#255125"/>
<path d="M46.4743 41.6013H44.3618V43.2001H46.4743V41.6013Z" fill="#143214"/>
<path d="M44.362 41.6011H42.2495V43.1998H44.362V41.6011Z" fill="#174516"/>
<path d="M42.2493 41.6013H40.1368V43.2001H42.2493V41.6013Z" fill="#0D350C"/>
<path d="M40.1369 41.6013H38.0244V43.2001H40.1369V41.6013Z" fill="#174516"/>
<path d="M38.0246 41.6011H35.9121V43.1998H38.0246V41.6011Z" fill="#174516"/>
<path d="M35.9118 41.6013H33.7993V43.2001H35.9118V41.6013Z" fill="#174516"/>
<path d="M33.7995 41.6013H31.687V43.2001H33.7995V41.6013Z" fill="#2C8B2F"/>
<path d="M31.6872 41.6011H29.5747V43.1998H31.6872V41.6011Z" fill="#1E8021"/>
<path d="M29.5744 41.6011H27.4619V43.1998H29.5744V41.6011Z" fill="#2C8B2F"/>
<path d="M27.4621 41.6013H25.3496V43.2001H27.4621V41.6013Z" fill="#1E8021"/>
<path d="M25.3498 41.6011H23.2373V43.1998H25.3498V41.6011Z" fill="#2C8B2F"/>
<path d="M23.237 41.6011H21.1245V43.1998H23.237V41.6011Z" fill="#2C8B2F"/>
<path d="M21.1247 41.6013H19.0122V43.2001H21.1247V41.6013Z" fill="#2C8B2F"/>
<path d="M19.0124 41.6011H16.8999V43.1998H19.0124V41.6011Z" fill="#1E8021"/>
<path d="M16.8997 41.6013H14.7872V43.2001H16.8997V41.6013Z" fill="#20571F"/>
<path d="M14.7873 41.6013H12.6748V43.2001H14.7873V41.6013Z" fill="#20571F"/>
<path d="M12.6745 41.6011H10.562V43.1998H12.6745V41.6011Z" fill="#20571F"/>
<path d="M10.5622 41.6011H8.44971V43.1998H10.5622V41.6011Z" fill="#20571F"/>
<path d="M8.44987 41.6013H6.3374V43.2001H8.44987V41.6013Z" fill="#20571F"/>
<path d="M54.924 39.9988H52.8115V41.5975H54.924V39.9988Z" fill="#2C8B2F"/>
<path d="M52.8117 39.9988H50.6992V41.5975H52.8117V39.9988Z" fill="#2C8B2F"/>
<path d="M50.6994 39.9988H48.5869V41.5975H50.6994V39.9988Z" fill="#1E8021"/>
<path d="M48.5866 39.9988H46.4741V41.5975H48.5866V39.9988Z" fill="#255125"/>
<path d="M46.4743 39.9988H44.3618V41.5975H46.4743V39.9988Z" fill="#143214"/>
<path d="M44.362 39.9988H42.2495V41.5975H44.362V39.9988Z" fill="#174516"/>
<path d="M42.2493 39.9988H40.1368V41.5975H42.2493V39.9988Z" fill="#174516"/>
<path d="M40.1369 39.9988H38.0244V41.5975H40.1369V39.9988Z" fill="#0D350C"/>
<path d="M38.0246 39.9988H35.9121V41.5975H38.0246V39.9988Z" fill="#174516"/>
<path d="M35.9118 39.9988H33.7993V41.5975H35.9118V39.9988Z" fill="#174516"/>
<path d="M33.7995 39.9988H31.687V41.5975H33.7995V39.9988Z" fill="#2C8B2F"/>
<path d="M31.6872 39.9988H29.5747V41.5975H31.6872V39.9988Z" fill="#2C8B2F"/>
<path d="M29.5744 39.9988H27.4619V41.5975H29.5744V39.9988Z" fill="#2C8B2F"/>
<path d="M27.4621 39.9988H25.3496V41.5975H27.4621V39.9988Z" fill="#2C8B2F"/>
<path d="M25.3498 39.9988H23.2373V41.5975H25.3498V39.9988Z" fill="#1E8021"/>
<path d="M23.237 39.9988H21.1245V41.5975H23.237V39.9988Z" fill="#2C8B2F"/>
<path d="M21.1247 39.9988H19.0122V41.5975H21.1247V39.9988Z" fill="#2C8B2F"/>
<path d="M19.0124 39.9988H16.8999V41.5975H19.0124V39.9988Z" fill="#2C8B2F"/>
<path d="M16.8997 39.9988H14.7872V41.5975H16.8997V39.9988Z" fill="#20571F"/>
<path d="M14.7873 39.9988H12.6748V41.5975H14.7873V39.9988Z" fill="#20571F"/>
<path d="M12.6745 39.9988H10.562V41.5975H12.6745V39.9988Z" fill="#174516"/>
<path d="M10.5622 39.9988H8.44971V41.5975H10.5622V39.9988Z" fill="#20571F"/>
<path d="M8.44987 39.9988H6.3374V41.5975H8.44987V39.9988Z" fill="#20571F"/>
<path d="M54.924 38.3999H52.8115V39.9986H54.924V38.3999Z" fill="#2C8B2F"/>
<path d="M52.8117 38.3999H50.6992V39.9986H52.8117V38.3999Z" fill="#2C8B2F"/>
<path d="M50.6994 38.3999H48.5869V39.9986H50.6994V38.3999Z" fill="#2C8B2F"/>
<path d="M48.5866 38.3999H46.4741V39.9986H48.5866V38.3999Z" fill="#255125"/>
<path d="M46.4743 38.3999H44.3618V39.9986H46.4743V38.3999Z" fill="#143214"/>
<path d="M44.362 38.3999H42.2495V39.9986H44.362V38.3999Z" fill="#174516"/>
<path d="M42.2493 38.3999H40.1368V39.9986H42.2493V38.3999Z" fill="#174516"/>
<path d="M40.1369 38.3999H38.0244V39.9986H40.1369V38.3999Z" fill="#174516"/>
<path d="M38.0246 38.3999H35.9121V39.9986H38.0246V38.3999Z" fill="#174516"/>
<path d="M35.9118 38.3999H33.7993V39.9986H35.9118V38.3999Z" fill="#174516"/>
<path d="M33.7995 38.3999H31.687V39.9986H33.7995V38.3999Z" fill="#2C8B2F"/>
<path d="M31.6872 38.3999H29.5747V39.9986H31.6872V38.3999Z" fill="#2C8B2F"/>
<path d="M29.5744 38.3999H27.4619V39.9986H29.5744V38.3999Z" fill="#1E8021"/>
<path d="M27.4621 38.3999H25.3496V39.9986H27.4621V38.3999Z" fill="#2C8B2F"/>
<path d="M25.3498 38.3999H23.2373V39.9986H25.3498V38.3999Z" fill="#2C8B2F"/>
<path d="M23.237 38.3999H21.1245V39.9986H23.237V38.3999Z" fill="#2C8B2F"/>
<path d="M21.1247 38.3999H19.0122V39.9986H21.1247V38.3999Z" fill="#1E8021"/>
<path d="M19.0124 38.3999H16.8999V39.9986H19.0124V38.3999Z" fill="#2C8B2F"/>
<path d="M16.8997 38.3999H14.7872V39.9986H16.8997V38.3999Z" fill="#174516"/>
<path d="M14.7873 38.3999H12.6748V39.9986H14.7873V38.3999Z" fill="#20571F"/>
<path d="M12.6745 38.3999H10.562V39.9986H12.6745V38.3999Z" fill="#20571F"/>
<path d="M10.5622 38.3999H8.44971V39.9986H10.5622V38.3999Z" fill="#174516"/>
<path d="M8.44987 38.3999H6.3374V39.9986H8.44987V38.3999Z" fill="#20571F"/>
<path d="M54.924 36.8013H52.8115V38.4H54.924V36.8013Z" fill="#2C8B2F"/>
<path d="M52.8117 36.8013H50.6992V38.4H52.8117V36.8013Z" fill="#1E8021"/>
<path d="M50.6994 36.8013H48.5869V38.4H50.6994V36.8013Z" fill="#2C8B2F"/>
<path d="M48.5866 36.8013H46.4741V38.4H48.5866V36.8013Z" fill="#255125"/>
<path d="M46.4743 36.8013H44.3618V38.4H46.4743V36.8013Z" fill="#143214"/>
<path d="M44.362 36.8013H42.2495V38.4H44.362V36.8013Z" fill="#0D350C"/>
<path d="M42.2493 36.8013H40.1368V38.4H42.2493V36.8013Z" fill="#174516"/>
<path d="M40.1369 36.8013H38.0244V38.4H40.1369V36.8013Z" fill="#174516"/>
<path d="M38.0246 36.8013H35.9121V38.4H38.0246V36.8013Z" fill="#174516"/>
<path d="M35.9118 36.8013H33.7993V38.4H35.9118V36.8013Z" fill="#174516"/>
<path d="M33.7995 36.8013H31.687V38.4H33.7995V36.8013Z" fill="#1E8021"/>
<path d="M31.6872 36.8013H29.5747V38.4H31.6872V36.8013Z" fill="#2C8B2F"/>
<path d="M29.5744 36.8013H27.4619V38.4H29.5744V36.8013Z" fill="#2C8B2F"/>
<path d="M27.4621 36.8013H25.3496V38.4H27.4621V36.8013Z" fill="#1E8021"/>
<path d="M25.3498 36.8013H23.2373V38.4H25.3498V36.8013Z" fill="#2C8B2F"/>
<path d="M23.237 36.8013H21.1245V38.4H23.237V36.8013Z" fill="#2C8B2F"/>
<path d="M21.1247 36.8013H19.0122V38.4H21.1247V36.8013Z" fill="#2C8B2F"/>
<path d="M19.0124 36.8013H16.8999V38.4H19.0124V36.8013Z" fill="#1E8021"/>
<path d="M16.8997 36.8013H14.7872V38.4H16.8997V36.8013Z" fill="#20571F"/>
<path d="M14.7873 36.8013H12.6748V38.4H14.7873V36.8013Z" fill="#20571F"/>
<path d="M12.6745 36.8013H10.562V38.4H12.6745V36.8013Z" fill="#20571F"/>
<path d="M10.5622 36.8013H8.44971V38.4H10.5622V36.8013Z" fill="#20571F"/>
<path d="M8.44987 36.8013H6.3374V38.4H8.44987V36.8013Z" fill="#20571F"/>
<path d="M54.924 35.1987H52.8115V36.7975H54.924V35.1987Z" fill="#2C8B2F"/>
<path d="M52.8117 35.1987H50.6992V36.7975H52.8117V35.1987Z" fill="#2C8B2F"/>
<path d="M50.6994 35.1987H48.5869V36.7975H50.6994V35.1987Z" fill="#2C8B2F"/>
<path d="M48.5866 35.1987H46.4741V36.7975H48.5866V35.1987Z" fill="#255125"/>
<path d="M46.4743 35.1987H44.3618V36.7975H46.4743V35.1987Z" fill="#143214"/>
<path d="M44.362 35.1987H42.2495V36.7975H44.362V35.1987Z" fill="#174516"/>
<path d="M42.2493 35.1987H40.1368V36.7975H42.2493V35.1987Z" fill="#0D350C"/>
<path d="M40.1369 35.1987H38.0244V36.7975H40.1369V35.1987Z" fill="#174516"/>
<path d="M38.0246 35.1987H35.9121V36.7975H38.0246V35.1987Z" fill="#174516"/>
<path d="M35.9118 35.1987H33.7993V36.7975H35.9118V35.1987Z" fill="#174516"/>
<path d="M33.7995 35.1987H31.687V36.7975H33.7995V35.1987Z" fill="#2C8B2F"/>
<path d="M31.6872 35.1987H29.5747V36.7975H31.6872V35.1987Z" fill="#2C8B2F"/>
<path d="M29.5744 35.1987H27.4619V36.7975H29.5744V35.1987Z" fill="#2C8B2F"/>
<path d="M27.4621 35.1987H25.3496V36.7975H27.4621V35.1987Z" fill="#2C8B2F"/>
<path d="M25.3498 35.1987H23.2373V36.7975H25.3498V35.1987Z" fill="#2C8B2F"/>
<path d="M23.237 35.1987H21.1245V36.7975H23.237V35.1987Z" fill="#1E8021"/>
<path d="M21.1247 35.1987H19.0122V36.7975H21.1247V35.1987Z" fill="#2C8B2F"/>
<path d="M19.0124 35.1987H16.8999V36.7975H19.0124V35.1987Z" fill="#2C8B2F"/>
<path d="M16.8997 35.1987H14.7872V36.7975H16.8997V35.1987Z" fill="#20571F"/>
<path d="M14.7873 35.1987H12.6748V36.7975H14.7873V35.1987Z" fill="#20571F"/>
<path d="M12.6745 35.1987H10.562V36.7975H12.6745V35.1987Z" fill="#174516"/>
<path d="M10.5622 35.1987H8.44971V36.7975H10.5622V35.1987Z" fill="#20571F"/>
<path d="M8.44987 35.1987H6.3374V36.7975H8.44987V35.1987Z" fill="#20571F"/>
<path d="M54.924 33.6001H52.8115V35.1988H54.924V33.6001Z" fill="#1E8021"/>
<path d="M52.8117 33.5999H50.6992V35.1986H52.8117V33.5999Z" fill="#2C8B2F"/>
<path d="M50.6994 33.6001H48.5869V35.1988H50.6994V33.6001Z" fill="#2C8B2F"/>
<path d="M48.5866 33.6001H46.4741V35.1988H48.5866V33.6001Z" fill="#255125"/>
<path d="M46.4743 33.5999H44.3618V35.1986H46.4743V33.5999Z" fill="#143214"/>
<path d="M44.362 33.6001H42.2495V35.1988H44.362V33.6001Z" fill="#174516"/>
<path d="M42.2493 33.5999H40.1368V35.1986H42.2493V33.5999Z" fill="#174516"/>
<path d="M40.1369 33.5999H38.0244V35.1986H40.1369V33.5999Z" fill="#174516"/>
<path d="M38.0246 33.6001H35.9121V35.1988H38.0246V33.6001Z" fill="#174516"/>
<path d="M35.9118 33.5999H33.7993V35.1986H35.9118V33.5999Z" fill="#174516"/>
<path d="M33.7995 33.5999H31.687V35.1986H33.7995V33.5999Z" fill="#2C8B2F"/>
<path d="M31.6872 33.6001H29.5747V35.1988H31.6872V33.6001Z" fill="#2C8B2F"/>
<path d="M29.5744 33.6001H27.4619V35.1988H29.5744V33.6001Z" fill="#1E8021"/>
<path d="M27.4621 33.5999H25.3496V35.1986H27.4621V33.5999Z" fill="#2C8B2F"/>
<path d="M25.3498 33.6001H23.2373V35.1988H25.3498V33.6001Z" fill="#2C8B2F"/>
<path d="M23.237 33.6001H21.1245V35.1988H23.237V33.6001Z" fill="#2C8B2F"/>
<path d="M21.1247 33.5999H19.0122V35.1986H21.1247V33.5999Z" fill="#1E8021"/>
<path d="M19.0124 33.6001H16.8999V35.1988H19.0124V33.6001Z" fill="#2C8B2F"/>
<path d="M16.8997 33.5999H14.7872V35.1986H16.8997V33.5999Z" fill="#20571F"/>
<path d="M14.7873 33.5999H12.6748V35.1986H14.7873V33.5999Z" fill="#20571F"/>
<path d="M12.6745 33.6001H10.562V35.1988H12.6745V33.6001Z" fill="#20571F"/>
<path d="M10.5622 33.6001H8.44971V35.1988H10.5622V33.6001Z" fill="#20571F"/>
<path d="M8.44987 33.5999H6.3374V35.1986H8.44987V33.5999Z" fill="#20571F"/>
<path d="M54.924 32.0012H52.8115V33.6H54.924V32.0012Z" fill="#2C8B2F"/>
<path d="M52.8117 32.0012H50.6992V33.6H52.8117V32.0012Z" fill="#2C8B2F"/>
<path d="M50.6994 32.0012H48.5869V33.6H50.6994V32.0012Z" fill="#2C8B2F"/>
<path d="M48.5866 32.0012H46.4741V33.6H48.5866V32.0012Z" fill="#255125"/>
<path d="M46.4743 32.0012H44.3618V33.6H46.4743V32.0012Z" fill="#143214"/>
<path d="M44.362 32.0012H42.2495V33.6H44.362V32.0012Z" fill="#174516"/>
<path d="M42.2493 32.0012H40.1368V33.6H42.2493V32.0012Z" fill="#174516"/>
<path d="M40.1369 32.0012H38.0244V33.6H40.1369V32.0012Z" fill="#174516"/>
<path d="M38.0246 32.0012H35.9121V33.6H38.0246V32.0012Z" fill="#0D350C"/>
<path d="M35.9118 32.0012H33.7993V33.6H35.9118V32.0012Z" fill="#174516"/>
<path d="M33.7995 32.0012H31.687V33.6H33.7995V32.0012Z" fill="#2C8B2F"/>
<path d="M31.6872 32.0012H29.5747V33.6H31.6872V32.0012Z" fill="#2C8B2F"/>
<path d="M29.5744 32.0012H27.4619V33.6H29.5744V32.0012Z" fill="#2C8B2F"/>
<path d="M27.4621 32.0012H25.3496V33.6H27.4621V32.0012Z" fill="#1E8021"/>
<path d="M25.3498 32.0012H23.2373V33.6H25.3498V32.0012Z" fill="#2C8B2F"/>
<path d="M23.237 32.0012H21.1245V33.6H23.237V32.0012Z" fill="#2C8B2F"/>
<path d="M21.1247 32.0012H19.0122V33.6H21.1247V32.0012Z" fill="#2C8B2F"/>
<path d="M19.0124 32.0012H16.8999V33.6H19.0124V32.0012Z" fill="#2C8B2F"/>
<path d="M16.8997 32.0012H14.7872V33.6H16.8997V32.0012Z" fill="#20571F"/>
<path d="M14.7873 32.0012H12.6748V33.6H14.7873V32.0012Z" fill="#20571F"/>
<path d="M12.6745 32.0012H10.562V33.6H12.6745V32.0012Z" fill="#20571F"/>
<path d="M10.5622 32.0012H8.44971V33.6H10.5622V32.0012Z" fill="#20571F"/>
<path d="M8.44987 32.0012H6.3374V33.6H8.44987V32.0012Z" fill="#174516"/>
<path d="M54.924 30.3987H52.8115V31.9974H54.924V30.3987Z" fill="#2C8B2F"/>
<path d="M52.8117 30.3987H50.6992V31.9974H52.8117V30.3987Z" fill="#2C8B2F"/>
<path d="M50.6994 30.3987H48.5869V31.9974H50.6994V30.3987Z" fill="#1E8021"/>
<path d="M48.5866 30.3987H46.4741V31.9974H48.5866V30.3987Z" fill="#255125"/>
<path d="M46.4743 30.3987H44.3618V31.9974H46.4743V30.3987Z" fill="#143214"/>
<path d="M44.362 30.3987H42.2495V31.9974H44.362V30.3987Z" fill="#174516"/>
<path d="M42.2493 30.3987H40.1368V31.9974H42.2493V30.3987Z" fill="#174516"/>
<path d="M40.1369 30.3987H38.0244V31.9974H40.1369V30.3987Z" fill="#174516"/>
<path d="M38.0246 30.3987H35.9121V31.9974H38.0246V30.3987Z" fill="#174516"/>
<path d="M35.9118 30.3987H33.7993V31.9974H35.9118V30.3987Z" fill="#0D350C"/>
<path d="M33.7995 30.3987H31.687V31.9974H33.7995V30.3987Z" fill="#1E8021"/>
<path d="M31.6872 30.3987H29.5747V31.9974H31.6872V30.3987Z" fill="#2C8B2F"/>
<path d="M29.5744 30.3987H27.4619V31.9974H29.5744V30.3987Z" fill="#2C8B2F"/>
<path d="M27.4621 30.3987H25.3496V31.9974H27.4621V30.3987Z" fill="#2C8B2F"/>
<path d="M25.3498 30.3987H23.2373V31.9974H25.3498V30.3987Z" fill="#2C8B2F"/>
<path d="M23.237 30.3987H21.1245V31.9974H23.237V30.3987Z" fill="#1E8021"/>
<path d="M21.1247 30.3987H19.0122V31.9974H21.1247V30.3987Z" fill="#2C8B2F"/>
<path d="M19.0124 30.3987H16.8999V31.9974H19.0124V30.3987Z" fill="#2C8B2F"/>
<path d="M16.8997 30.3987H14.7872V31.9974H16.8997V30.3987Z" fill="#20571F"/>
<path d="M14.7873 30.3987H12.6748V31.9974H14.7873V30.3987Z" fill="#20571F"/>
<path d="M12.6745 30.3987H10.562V31.9974H12.6745V30.3987Z" fill="#20571F"/>
<path d="M10.5622 30.3987H8.44971V31.9974H10.5622V30.3987Z" fill="#20571F"/>
<path d="M8.44987 30.3987H6.3374V31.9974H8.44987V30.3987Z" fill="#20571F"/>
<path d="M54.924 28.8H52.8115V30.3988H54.924V28.8Z" fill="#2C8B2F"/>
<path d="M52.8117 28.8H50.6992V30.3988H52.8117V28.8Z" fill="#2C8B2F"/>
<path d="M50.6994 28.8H48.5869V30.3988H50.6994V28.8Z" fill="#2C8B2F"/>
<path d="M48.5866 28.8H46.4741V30.3988H48.5866V28.8Z" fill="#255125"/>
<path d="M46.4743 28.8H44.3618V30.3988H46.4743V28.8Z" fill="#143214"/>
<path d="M44.362 28.8H42.2495V30.3988H44.362V28.8Z" fill="#0D350C"/>
<path d="M42.2493 28.8H40.1368V30.3988H42.2493V28.8Z" fill="#174516"/>
<path d="M40.1369 28.8H38.0244V30.3988H40.1369V28.8Z" fill="#174516"/>
<path d="M38.0246 28.8H35.9121V30.3988H38.0246V28.8Z" fill="#174516"/>
<path d="M35.9118 28.8H33.7993V30.3988H35.9118V28.8Z" fill="#174516"/>
<path d="M33.7995 28.8H31.687V30.3988H33.7995V28.8Z" fill="#2C8B2F"/>
<path d="M31.6872 28.8H29.5747V30.3988H31.6872V28.8Z" fill="#2C8B2F"/>
<path d="M29.5744 28.8H27.4619V30.3988H29.5744V28.8Z" fill="#1E8021"/>
<path d="M27.4621 28.8H25.3496V30.3988H27.4621V28.8Z" fill="#2C8B2F"/>
<path d="M25.3498 28.8H23.2373V30.3988H25.3498V28.8Z" fill="#2C8B2F"/>
<path d="M23.237 28.8H21.1245V30.3988H23.237V28.8Z" fill="#2C8B2F"/>
<path d="M21.1247 28.8H19.0122V30.3988H21.1247V28.8Z" fill="#1E8021"/>
<path d="M19.0124 28.8H16.8999V30.3988H19.0124V28.8Z" fill="#2C8B2F"/>
<path d="M16.8997 28.8H14.7872V30.3988H16.8997V28.8Z" fill="#20571F"/>
<path d="M14.7873 28.8H12.6748V30.3988H14.7873V28.8Z" fill="#20571F"/>
<path d="M12.6745 28.8H10.562V30.3988H12.6745V28.8Z" fill="#20571F"/>
<path d="M10.5622 28.8H8.44971V30.3988H10.5622V28.8Z" fill="#20571F"/>
<path d="M8.44987 28.8H6.3374V30.3988H8.44987V28.8Z" fill="#20571F"/>
<path d="M54.924 27.2012H52.8115V28.7999H54.924V27.2012Z" fill="#2C8B2F"/>
<path d="M52.8117 27.2012H50.6992V28.7999H52.8117V27.2012Z" fill="#1E8021"/>
<path d="M50.6994 27.2012H48.5869V28.7999H50.6994V27.2012Z" fill="#2C8B2F"/>
<path d="M48.5866 27.2012H46.4741V28.7999H48.5866V27.2012Z" fill="#255125"/>
<path d="M46.4743 27.2012H44.3618V28.7999H46.4743V27.2012Z" fill="#143214"/>
<path d="M44.362 27.2012H42.2495V28.7999H44.362V27.2012Z" fill="#174516"/>
<path d="M42.2493 27.2012H40.1368V28.7999H42.2493V27.2012Z" fill="#174516"/>
<path d="M40.1369 27.2012H38.0244V28.7999H40.1369V27.2012Z" fill="#0D350C"/>
<path d="M38.0246 27.2012H35.9121V28.7999H38.0246V27.2012Z" fill="#174516"/>
<path d="M35.9118 27.2012H33.7993V28.7999H35.9118V27.2012Z" fill="#174516"/>
<path d="M33.7995 27.2012H31.687V28.7999H33.7995V27.2012Z" fill="#2C8B2F"/>
<path d="M31.6872 27.2012H29.5747V28.7999H31.6872V27.2012Z" fill="#2C8B2F"/>
<path d="M29.5744 27.2012H27.4619V28.7999H29.5744V27.2012Z" fill="#2C8B2F"/>
<path d="M27.4621 27.2012H25.3496V28.7999H27.4621V27.2012Z" fill="#2C8B2F"/>
<path d="M25.3498 27.2012H23.2373V28.7999H25.3498V27.2012Z" fill="#1E8021"/>
<path d="M23.237 27.2012H21.1245V28.7999H23.237V27.2012Z" fill="#2C8B2F"/>
<path d="M21.1247 27.2012H19.0122V28.7999H21.1247V27.2012Z" fill="#2C8B2F"/>
<path d="M19.0124 27.2012H16.8999V28.7999H19.0124V27.2012Z" fill="#2C8B2F"/>
<path d="M16.8997 27.2012H14.7872V28.7999H16.8997V27.2012Z" fill="#20571F"/>
<path d="M14.7873 27.2012H12.6748V28.7999H14.7873V27.2012Z" fill="#174516"/>
<path d="M12.6745 27.2012H10.562V28.7999H12.6745V27.2012Z" fill="#20571F"/>
<path d="M10.5622 27.2012H8.44971V28.7999H10.5622V27.2012Z" fill="#174516"/>
<path d="M8.44987 27.2012H6.3374V28.7999H8.44987V27.2012Z" fill="#20571F"/>
<path d="M54.924 25.5986H52.8115V27.1974H54.924V25.5986Z" fill="#2C8B2F"/>
<path d="M52.8117 25.5986H50.6992V27.1974H52.8117V25.5986Z" fill="#2C8B2F"/>
<path d="M50.6994 25.5986H48.5869V27.1974H50.6994V25.5986Z" fill="#2C8B2F"/>
<path d="M48.5866 25.5986H46.4741V27.1974H48.5866V25.5986Z" fill="#255125"/>
<path d="M46.4743 25.5986H44.3618V27.1974H46.4743V25.5986Z" fill="#143214"/>
<path d="M44.362 25.5986H42.2495V27.1974H44.362V25.5986Z" fill="#174516"/>
<path d="M42.2493 25.5986H40.1368V27.1974H42.2493V25.5986Z" fill="#174516"/>
<path d="M40.1369 25.5986H38.0244V27.1974H40.1369V25.5986Z" fill="#174516"/>
<path d="M38.0246 25.5986H35.9121V27.1974H38.0246V25.5986Z" fill="#174516"/>
<path d="M35.9118 25.5986H33.7993V27.1974H35.9118V25.5986Z" fill="#174516"/>
<path d="M33.7995 25.5986H31.687V27.1974H33.7995V25.5986Z" fill="#2C8B2F"/>
<path d="M31.6872 25.5986H29.5747V27.1974H31.6872V25.5986Z" fill="#1E8021"/>
<path d="M29.5744 25.5986H27.4619V27.1974H29.5744V25.5986Z" fill="#2C8B2F"/>
<path d="M27.4621 25.5986H25.3496V27.1974H27.4621V25.5986Z" fill="#2C8B2F"/>
<path d="M25.3498 25.5986H23.2373V27.1974H25.3498V25.5986Z" fill="#2C8B2F"/>
<path d="M23.237 25.5986H21.1245V27.1974H23.237V25.5986Z" fill="#1E8021"/>
<path d="M21.1247 25.5986H19.0122V27.1974H21.1247V25.5986Z" fill="#2C8B2F"/>
<path d="M19.0124 25.5986H16.8999V27.1974H19.0124V25.5986Z" fill="#2C8B2F"/>
<path d="M16.8997 25.5986H14.7872V27.1974H16.8997V25.5986Z" fill="#20571F"/>
<path d="M14.7873 25.5986H12.6748V27.1974H14.7873V25.5986Z" fill="#20571F"/>
<path d="M12.6745 25.5986H10.562V27.1974H12.6745V25.5986Z" fill="#174516"/>
<path d="M10.5622 25.5986H8.44971V27.1974H10.5622V25.5986Z" fill="#20571F"/>
<path d="M8.44987 25.5986H6.3374V27.1974H8.44987V25.5986Z" fill="#20571F"/>
<path d="M54.924 24H52.8115V25.5987H54.924V24Z" fill="#2C8B2F"/>
<path d="M52.8117 24H50.6992V25.5987H52.8117V24Z" fill="#2C8B2F"/>
<path d="M50.6994 24H48.5869V25.5987H50.6994V24Z" fill="#2C8B2F"/>
<path d="M48.5866 24H46.4741V25.5987H48.5866V24Z" fill="#255125"/>
<path d="M46.4743 24H44.3618V25.5987H46.4743V24Z" fill="#0C2F0B"/>
<path d="M44.362 24H42.2495V25.5987H44.362V24Z" fill="#0C2F0B"/>
<path d="M42.2493 24H40.1368V25.5987H42.2493V24Z" fill="#0C2F0B"/>
<path d="M40.1369 24H38.0244V25.5987H40.1369V24Z" fill="#0C2F0B"/>
<path d="M38.0246 24H35.9121V25.5987H38.0246V24Z" fill="#0C2F0B"/>
<path d="M35.9118 24H33.7993V25.5987H35.9118V24Z" fill="#0C2F0B"/>
<path d="M33.7995 24H31.687V25.5987H33.7995V24Z" fill="#2C8B2F"/>
<path d="M31.6872 24H29.5747V25.5987H31.6872V24Z" fill="#2C8B2F"/>
<path d="M29.5744 24H27.4619V25.5987H29.5744V24Z" fill="#1E8021"/>
<path d="M27.4621 24H25.3496V25.5987H27.4621V24Z" fill="#2C8B2F"/>
<path d="M25.3498 24H23.2373V25.5987H25.3498V24Z" fill="#2C8B2F"/>
<path d="M23.237 24H21.1245V25.5987H23.237V24Z" fill="#2C8B2F"/>
<path d="M21.1247 24H19.0122V25.5987H21.1247V24Z" fill="#2C8B2F"/>
<path d="M19.0124 24H16.8999V25.5987H19.0124V24Z" fill="#1E8021"/>
<path d="M16.8997 24H14.7872V25.5987H16.8997V24Z" fill="#20571F"/>
<path d="M14.7873 24H12.6748V25.5987H14.7873V24Z" fill="#20571F"/>
<path d="M12.6745 24H10.562V25.5987H12.6745V24Z" fill="#20571F"/>
<path d="M10.5622 24H8.44971V25.5987H10.5622V24Z" fill="#174516"/>
<path d="M8.44987 24H6.3374V25.5987H8.44987V24Z" fill="#20571F"/>
<path d="M54.924 22.4014H52.8115V24.0001H54.924V22.4014Z" fill="#1E8021"/>
<path d="M52.8117 22.4011H50.6992V23.9999H52.8117V22.4011Z" fill="#2C8B2F"/>
<path d="M50.6994 22.4014H48.5869V24.0001H50.6994V22.4014Z" fill="#2C8B2F"/>
<path d="M48.5866 22.4014H46.4741V24.0001H48.5866V22.4014Z" fill="#2C8B2F"/>
<path d="M46.4743 22.4011H44.3618V23.9999H46.4743V22.4011Z" fill="#2C8B2F"/>
<path d="M44.362 22.4014H42.2495V24.0001H44.362V22.4014Z" fill="#1E8021"/>
<path d="M42.2493 22.4011H40.1368V23.9999H42.2493V22.4011Z" fill="#2C8B2F"/>
<path d="M40.1369 22.4011H38.0244V23.9999H40.1369V22.4011Z" fill="#2C8B2F"/>
<path d="M38.0246 22.4014H35.9121V24.0001H38.0246V22.4014Z" fill="#2C8B2F"/>
<path d="M35.9118 22.4011H33.7993V23.9999H35.9118V22.4011Z" fill="#2C8B2F"/>
<path d="M33.7995 22.4011H31.687V23.9999H33.7995V22.4011Z" fill="#1E8021"/>
<path d="M31.6872 22.4014H29.5747V24.0001H31.6872V22.4014Z" fill="#2C8B2F"/>
<path d="M29.5744 22.4014H27.4619V24.0001H29.5744V22.4014Z" fill="#2C8B2F"/>
<path d="M27.4621 22.4011H25.3496V23.9999H27.4621V22.4011Z" fill="#2C8B2F"/>
<path d="M25.3498 22.4014H23.2373V24.0001H25.3498V22.4014Z" fill="#2C8B2F"/>
<path d="M23.237 22.4014H21.1245V24.0001H23.237V22.4014Z" fill="#2C8B2F"/>
<path d="M21.1247 22.4011H19.0122V23.9999H21.1247V22.4011Z" fill="#1E8021"/>
<path d="M19.0124 22.4014H16.8999V24.0001H19.0124V22.4014Z" fill="#2C8B2F"/>
<path d="M16.8997 22.4011H14.7872V23.9999H16.8997V22.4011Z" fill="#20571F"/>
<path d="M14.7873 22.4011H12.6748V23.9999H14.7873V22.4011Z" fill="#174516"/>
<path d="M12.6745 22.4014H10.562V24.0001H12.6745V22.4014Z" fill="#20571F"/>
<path d="M10.5622 22.4014H8.44971V24.0001H10.5622V22.4014Z" fill="#20571F"/>
<path d="M8.44987 22.4011H6.3374V23.9999H8.44987V22.4011Z" fill="#174516"/>
<path d="M54.924 20.7988H52.8115V22.3976H54.924V20.7988Z" fill="#2C8B2F"/>
<path d="M52.8117 20.7988H50.6992V22.3976H52.8117V20.7988Z" fill="#2C8B2F"/>
<path d="M50.6994 20.7988H48.5869V22.3976H50.6994V20.7988Z" fill="#1E8021"/>
<path d="M48.5866 20.7988H46.4741V22.3976H48.5866V20.7988Z" fill="#2C8B2F"/>
<path d="M46.4743 20.7988H44.3618V22.3976H46.4743V20.7988Z" fill="#2C8B2F"/>
<path d="M44.362 20.7988H42.2495V22.3976H44.362V20.7988Z" fill="#2C8B2F"/>
<path d="M42.2493 20.7988H40.1368V22.3976H42.2493V20.7988Z" fill="#1E8021"/>
<path d="M40.1369 20.7988H38.0244V22.3976H40.1369V20.7988Z" fill="#2C8B2F"/>
<path d="M38.0246 20.7988H35.9121V22.3976H38.0246V20.7988Z" fill="#1E8021"/>
<path d="M35.9118 20.7988H33.7993V22.3976H35.9118V20.7988Z" fill="#2C8B2F"/>
<path d="M33.7995 20.7988H31.687V22.3976H33.7995V20.7988Z" fill="#2C8B2F"/>
<path d="M31.6872 20.7988H29.5747V22.3976H31.6872V20.7988Z" fill="#2C8B2F"/>
<path d="M29.5744 20.7988H27.4619V22.3976H29.5744V20.7988Z" fill="#1E8021"/>
<path d="M27.4621 20.7988H25.3496V22.3976H27.4621V20.7988Z" fill="#2C8B2F"/>
<path d="M25.3498 20.7988H23.2373V22.3976H25.3498V20.7988Z" fill="#1E8021"/>
<path d="M23.237 20.7988H21.1245V22.3976H23.237V20.7988Z" fill="#2C8B2F"/>
<path d="M21.1247 20.7988H19.0122V22.3976H21.1247V20.7988Z" fill="#2C8B2F"/>
<path d="M19.0124 20.7988H16.8999V22.3976H19.0124V20.7988Z" fill="#2C8B2F"/>
<path d="M16.8997 20.7988H14.7872V22.3976H16.8997V20.7988Z" fill="#20571F"/>
<path d="M14.7873 20.7988H12.6748V22.3976H14.7873V20.7988Z" fill="#20571F"/>
<path d="M12.6745 20.7988H10.562V22.3976H12.6745V20.7988Z" fill="#174516"/>
<path d="M10.5622 20.7988H8.44971V22.3976H10.5622V20.7988Z" fill="#20571F"/>
<path d="M8.44987 20.7988H6.3374V22.3976H8.44987V20.7988Z" fill="#20571F"/>
<path d="M54.924 19.2H52.8115V20.7987H54.924V19.2Z" fill="#2C8B2F"/>
<path d="M52.8117 19.2H50.6992V20.7987H52.8117V19.2Z" fill="#2C8B2F"/>
<path d="M50.6994 19.2H48.5869V20.7987H50.6994V19.2Z" fill="#2C8B2F"/>
<path d="M48.5866 19.2H46.4741V20.7987H48.5866V19.2Z" fill="#1E8021"/>
<path d="M46.4743 19.2H44.3618V20.7987H46.4743V19.2Z" fill="#2C8B2F"/>
<path d="M44.362 19.2H42.2495V20.7987H44.362V19.2Z" fill="#2C8B2F"/>
<path d="M42.2493 19.2H40.1368V20.7987H42.2493V19.2Z" fill="#2C8B2F"/>
<path d="M40.1369 19.2H38.0244V20.7987H40.1369V19.2Z" fill="#2C8B2F"/>
<path d="M38.0246 19.2H35.9121V20.7987H38.0246V19.2Z" fill="#2C8B2F"/>
<path d="M35.9118 19.2H33.7993V20.7987H35.9118V19.2Z" fill="#2C8B2F"/>
<path d="M33.7995 19.2H31.687V20.7987H33.7995V19.2Z" fill="#2C8B2F"/>
<path d="M31.6872 19.2H29.5747V20.7987H31.6872V19.2Z" fill="#2C8B2F"/>
<path d="M29.5744 19.2H27.4619V20.7987H29.5744V19.2Z" fill="#2C8B2F"/>
<path d="M27.4621 19.2H25.3496V20.7987H27.4621V19.2Z" fill="#1E8021"/>
<path d="M25.3498 19.2H23.2373V20.7987H25.3498V19.2Z" fill="#2C8B2F"/>
<path d="M23.237 19.2H21.1245V20.7987H23.237V19.2Z" fill="#2C8B2F"/>
<path d="M21.1247 19.2H19.0122V20.7987H21.1247V19.2Z" fill="#2C8B2F"/>
<path d="M19.0124 19.2H16.8999V20.7987H19.0124V19.2Z" fill="#3C983F"/>
<path d="M6.33744 19.2H4.22498V20.7987H6.33744V19.2Z" fill="#0F3510"/>
<path d="M4.22477 19.2H2.1123V20.7987H4.22477V19.2Z" fill="#0F3510"/>
<path d="M61.2614 17.6013H59.1489V19.2001H61.2614V17.6013Z" fill="#0F3510"/>
<path d="M52.8117 17.6013H50.6992V19.2001H52.8117V17.6013Z" fill="#3F8F41"/>
<path d="M50.6994 17.6011H48.5869V19.1998H50.6994V17.6011Z" fill="#2C8B2F"/>
<path d="M48.5866 17.6011H46.4741V19.1998H48.5866V17.6011Z" fill="#2C8B2F"/>
<path d="M46.4743 17.6013H44.3618V19.2001H46.4743V17.6013Z" fill="#2C8B2F"/>
<path d="M44.362 17.6011H42.2495V19.1998H44.362V17.6011Z" fill="#2C8B2F"/>
<path d="M42.2493 17.6013H40.1368V19.2001H42.2493V17.6013Z" fill="#2C8B2F"/>
<path d="M40.1369 17.6013H38.0244V19.2001H40.1369V17.6013Z" fill="#2C8B2F"/>
<path d="M38.0246 17.6011H35.9121V19.1998H38.0246V17.6011Z" fill="#2C8B2F"/>
<path d="M35.9118 17.6013H33.7993V19.2001H35.9118V17.6013Z" fill="#2C8B2F"/>
<path d="M33.7995 17.6013H31.687V19.2001H33.7995V17.6013Z" fill="#1E8021"/>
<path d="M31.6872 17.6011H29.5747V19.1998H31.6872V17.6011Z" fill="#2C8B2F"/>
<path d="M29.5744 17.6011H27.4619V19.1998H29.5744V17.6011Z" fill="#2C8B2F"/>
<path d="M27.4621 17.6013H25.3496V19.2001H27.4621V17.6013Z" fill="#2C8B2F"/>
<path d="M25.3498 17.6011H23.2373V19.1998H25.3498V17.6011Z" fill="#2C8B2F"/>
<path d="M23.237 17.6011H21.1245V19.1998H23.237V17.6011Z" fill="#2C8B2F"/>
<path d="M21.1247 17.6013H19.0122V19.2001H21.1247V17.6013Z" fill="#2C8B2F"/>
<path d="M12.6745 17.6011H10.562V19.1998H12.6745V17.6011Z" fill="#0F3510"/>
<path d="M10.5622 17.6011H8.44971V19.1998H10.5622V17.6011Z" fill="#0F3510"/>
<path d="M8.44987 17.6013H6.3374V19.2001H8.44987V17.6013Z" fill="#0F3510"/>
<path d="M6.33744 17.6013H4.22498V19.2001H6.33744V17.6013Z" fill="#0F3510"/>
<path d="M4.22477 17.6011H2.1123V19.1998H4.22477V17.6011Z" fill="#0F3510"/>
<path d="M2.11247 17.6013H0V19.2001H2.11247V17.6013Z" fill="#0F3510"/>
<path d="M63.3742 15.9988H61.2617V17.5975H63.3742V15.9988Z" fill="#0F3510"/>
<path d="M61.2614 15.9988H59.1489V17.5975H61.2614V15.9988Z" fill="#0F3510"/>
<path d="M59.1491 15.9988H57.0366V17.5975H59.1491V15.9988Z" fill="#0F3510"/>
<path d="M50.6994 15.9988H48.5869V17.5975H50.6994V15.9988Z" fill="#2C8B2F"/>
<path d="M48.5866 15.9988H46.4741V17.5975H48.5866V15.9988Z" fill="#2C8B2F"/>
<path d="M46.4743 15.9988H44.3618V17.5975H46.4743V15.9988Z" fill="#2C8B2F"/>
<path d="M44.362 15.9988H42.2495V17.5975H44.362V15.9988Z" fill="#2C8B2F"/>
<path d="M42.2493 15.9988H40.1368V17.5975H42.2493V15.9988Z" fill="#2C8B2F"/>
<path d="M40.1369 15.9988H38.0244V17.5975H40.1369V15.9988Z" fill="#2C8B2F"/>
<path d="M38.0246 15.9988H35.9121V17.5975H38.0246V15.9988Z" fill="#1E8021"/>
<path d="M35.9118 15.9988H33.7993V17.5975H35.9118V15.9988Z" fill="#2C8B2F"/>
<path d="M33.7995 15.9988H31.687V17.5975H33.7995V15.9988Z" fill="#2C8B2F"/>
<path d="M31.6872 15.9988H29.5747V17.5975H31.6872V15.9988Z" fill="#1E8021"/>
<path d="M29.5744 15.9988H27.4619V17.5975H29.5744V15.9988Z" fill="#2C8B2F"/>
<path d="M27.4621 15.9988H25.3496V17.5975H27.4621V15.9988Z" fill="#2C8B2F"/>
<path d="M25.3498 15.9988H23.2373V17.5975H25.3498V15.9988Z" fill="#2C8B2F"/>
<path d="M16.8997 15.9988H14.7872V17.5975H16.8997V15.9988Z" fill="#165719"/>
<path d="M14.7873 15.9988H12.6748V17.5975H14.7873V15.9988Z" fill="#0F3510"/>
<path d="M12.6745 15.9988H10.562V17.5975H12.6745V15.9988Z" fill="#0F3510"/>
<path d="M10.5622 15.9988H8.44971V17.5975H10.5622V15.9988Z" fill="#0F3510"/>
<path d="M8.44987 15.9988H6.3374V17.5975H8.44987V15.9988Z" fill="#0F3510"/>
<path d="M6.33744 15.9988H4.22498V17.5975H6.33744V15.9988Z" fill="#0F3510"/>
<path d="M4.22477 15.9988H2.1123V17.5975H4.22477V15.9988Z" fill="#1F5020"/>
<path d="M2.11247 15.9988H0V17.5975H2.11247V15.9988Z" fill="#346D35"/>
<path d="M61.2614 14.3999H59.1489V15.9986H61.2614V14.3999Z" fill="#0F3510"/>
<path d="M59.1491 14.3999H57.0366V15.9986H59.1491V14.3999Z" fill="#0F3510"/>
<path d="M57.0363 14.3999H54.9238V15.9986H57.0363V14.3999Z" fill="#0F3510"/>
<path d="M46.4743 14.3999H44.3618V15.9986H46.4743V14.3999Z" fill="#2C8B2F"/>
<path d="M44.362 14.3999H42.2495V15.9986H44.362V14.3999Z" fill="#2C8B2F"/>
<path d="M42.2493 14.3999H40.1368V15.9986H42.2493V14.3999Z" fill="#1E8021"/>
<path d="M40.1369 14.3999H38.0244V15.9986H40.1369V14.3999Z" fill="#2C8B2F"/>
<path d="M38.0246 14.3999H35.9121V15.9986H38.0246V14.3999Z" fill="#2C8B2F"/>
<path d="M35.9118 14.3999H33.7993V15.9986H35.9118V14.3999Z" fill="#1E8021"/>
<path d="M33.7995 14.3999H31.687V15.9986H33.7995V14.3999Z" fill="#2C8B2F"/>
<path d="M31.6872 14.3999H29.5747V15.9986H31.6872V14.3999Z" fill="#2C8B2F"/>
<path d="M29.5744 14.3999H27.4619V15.9986H29.5744V14.3999Z" fill="#2C8B2F"/>
<path d="M27.4621 14.3999H25.3496V15.9986H27.4621V14.3999Z" fill="#2C8B2F"/>
<path d="M19.0124 14.3999H16.8999V15.9986H19.0124V14.3999Z" fill="#0F3510"/>
<path d="M16.8997 14.3999H14.7872V15.9986H16.8997V14.3999Z" fill="#0F3510"/>
<path d="M14.7873 14.3999H12.6748V15.9986H14.7873V14.3999Z" fill="#0F3510"/>
<path d="M12.6745 14.3999H10.562V15.9986H12.6745V14.3999Z" fill="#0F3510"/>
<path d="M10.5622 14.3999H8.44971V15.9986H10.5622V14.3999Z" fill="#176319"/>
<path d="M8.44987 14.3999H6.3374V15.9986H8.44987V14.3999Z" fill="#176319"/>
<path d="M6.33744 14.3999H4.22498V15.9986H6.33744V14.3999Z" fill="#176319"/>
<path d="M4.22477 14.3999H2.1123V15.9986H4.22477V14.3999Z" fill="#316D32"/>
<path d="M59.1491 12.8013H57.0366V14.4H59.1491V12.8013Z" fill="#0F3510"/>
<path d="M57.0363 12.8013H54.9238V14.4H57.0363V12.8013Z" fill="#0F3510"/>
<path d="M54.924 12.8013H52.8115V14.4H54.924V12.8013Z" fill="#0F3510"/>
<path d="M52.8117 12.8013H50.6992V14.4H52.8117V12.8013Z" fill="#0F3510"/>
<path d="M44.362 12.8013H42.2495V14.4H44.362V12.8013Z" fill="#2C8B2F"/>
<path d="M42.2493 12.8013H40.1368V14.4H42.2493V12.8013Z" fill="#2C8B2F"/>
<path d="M40.1369 12.8013H38.0244V14.4H40.1369V12.8013Z" fill="#1E8021"/>
<path d="M38.0246 12.8013H35.9121V14.4H38.0246V12.8013Z" fill="#2C8B2F"/>
<path d="M35.9118 12.8013H33.7993V14.4H35.9118V12.8013Z" fill="#2C8B2F"/>
<path d="M33.7995 12.8013H31.687V14.4H33.7995V12.8013Z" fill="#2C8B2F"/>
<path d="M31.6872 12.8013H29.5747V14.4H31.6872V12.8013Z" fill="#2C8B2F"/>
<path d="M29.5744 12.8013H27.4619V14.4H29.5744V12.8013Z" fill="#2C8B2F"/>
<path d="M21.1247 12.8013H19.0122V14.4H21.1247V12.8013Z" fill="#0F3510"/>
<path d="M19.0124 12.8013H16.8999V14.4H19.0124V12.8013Z" fill="#0F3510"/>
<path d="M16.8997 12.8013H14.7872V14.4H16.8997V12.8013Z" fill="#0F3510"/>
<path d="M14.7873 12.8013H12.6748V14.4H14.7873V12.8013Z" fill="#0C560E"/>
<path d="M12.6745 12.8013H10.562V14.4H12.6745V12.8013Z" fill="#176319"/>
<path d="M10.5622 12.8013H8.44971V14.4H10.5622V12.8013Z" fill="#176319"/>
<path d="M8.44987 12.8013H6.3374V14.4H8.44987V12.8013Z" fill="#176319"/>
<path d="M54.924 11.1987H52.8115V12.7975H54.924V11.1987Z" fill="#0F3510"/>
<path d="M52.8117 11.1987H50.6992V12.7975H52.8117V11.1987Z" fill="#0F3510"/>
<path d="M50.6994 11.1987H48.5869V12.7975H50.6994V11.1987Z" fill="#0F3510"/>
<path d="M42.2493 11.1987H40.1368V12.7975H42.2493V11.1987Z" fill="#2C8B2F"/>
<path d="M40.1369 11.1987H38.0244V12.7975H40.1369V11.1987Z" fill="#2C8B2F"/>
<path d="M38.0246 11.1987H35.9121V12.7975H38.0246V11.1987Z" fill="#2C8B2F"/>
<path d="M35.9118 11.1987H33.7993V12.7975H35.9118V11.1987Z" fill="#2C8B2F"/>
<path d="M33.7995 11.1987H31.687V12.7975H33.7995V11.1987Z" fill="#2C8B2F"/>
<path d="M23.237 11.1987H21.1245V12.7975H23.237V11.1987Z" fill="#0F3510"/>
<path d="M21.1247 11.1987H19.0122V12.7975H21.1247V11.1987Z" fill="#0F3510"/>
<path d="M19.0124 11.1987H16.8999V12.7975H19.0124V11.1987Z" fill="#0F3510"/>
<path d="M16.8997 11.1987H14.7872V12.7975H16.8997V11.1987Z" fill="#176319"/>
<path d="M14.7873 11.1987H12.6748V12.7975H14.7873V11.1987Z" fill="#176319"/>
<path d="M12.6745 11.1987H10.562V12.7975H12.6745V11.1987Z" fill="#176319"/>
<path d="M10.5622 11.1987H8.44971V12.7975H10.5622V11.1987Z" fill="#176319"/>
<path d="M52.8117 9.6001H50.6992V11.1988H52.8117V9.6001Z" fill="#0F3510"/>
<path d="M50.6994 9.6001H48.5869V11.1988H50.6994V9.6001Z" fill="#0F3510"/>
<path d="M48.5866 9.6001H46.4741V11.1988H48.5866V9.6001Z" fill="#0F3510"/>
<path d="M38.0246 9.6001H35.9121V11.1988H38.0246V9.6001Z" fill="#2C8B2F"/>
<path d="M35.9118 9.6001H33.7993V11.1988H35.9118V9.6001Z" fill="#2C8B2F"/>
<path d="M27.4621 9.6001H25.3496V11.1988H27.4621V9.6001Z" fill="#0F3510"/>
<path d="M25.3498 9.6001H23.2373V11.1988H25.3498V9.6001Z" fill="#0F3510"/>
<path d="M23.237 9.6001H21.1245V11.1988H23.237V9.6001Z" fill="#0F3510"/>
<path d="M21.1247 9.6001H19.0122V11.1988H21.1247V9.6001Z" fill="#0F3510"/>
<path d="M19.0124 9.6001H16.8999V11.1988H19.0124V9.6001Z" fill="#176319"/>
<path d="M16.8997 9.6001H14.7872V11.1988H16.8997V9.6001Z" fill="#0F3510"/>
<path d="M14.7873 9.6001H12.6748V11.1988H14.7873V9.6001Z" fill="#0F3510"/>
<path d="M12.6745 9.6001H10.562V11.1988H12.6745V9.6001Z" fill="#176319"/>
<path d="M50.6994 8.00122H48.5869V9.59996H50.6994V8.00122Z" fill="#0F3510"/>
<path d="M48.5866 8.00122H46.4741V9.59996H48.5866V8.00122Z" fill="#0F3510"/>
<path d="M46.4743 8.00122H44.3618V9.59996H46.4743V8.00122Z" fill="#0F3510"/>
<path d="M44.362 8.00122H42.2495V9.59996H44.362V8.00122Z" fill="#1A4D1C"/>
<path d="M29.5744 8.00122H27.4619V9.59996H29.5744V8.00122Z" fill="#0F3510"/>
<path d="M27.4621 8.00122H25.3496V9.59996H27.4621V8.00122Z" fill="#0F3510"/>
<path d="M25.3498 8.00122H23.2373V9.59996H25.3498V8.00122Z" fill="#0F3510"/>
<path d="M23.237 8.00122H21.1245V9.59996H23.237V8.00122Z" fill="#154617"/>
<path d="M21.1247 8.00122H19.0122V9.59996H21.1247V8.00122Z" fill="#176319"/>
<path d="M19.0124 8.00122H16.8999V9.59996H19.0124V8.00122Z" fill="#0F3510"/>
<path d="M16.8997 8.00122H14.7872V9.59996H16.8997V8.00122Z" fill="#0F3510"/>
<path d="M14.7873 8.00122H12.6748V9.59996H14.7873V8.00122Z" fill="#0F3510"/>
<path d="M12.6745 8.00122H10.562V9.59996H12.6745V8.00122Z" fill="#176319"/>
<path d="M48.5866 6.39868H46.4741V7.99742H48.5866V6.39868Z" fill="#0F3510"/>
<path d="M46.4743 6.39868H44.3618V7.99742H46.4743V6.39868Z" fill="#0F3510"/>
<path d="M44.362 6.39868H42.2495V7.99742H44.362V6.39868Z" fill="#0F3510"/>
<path d="M42.2493 6.39868H40.1368V7.99742H42.2493V6.39868Z" fill="#0F3510"/>
<path d="M31.6872 6.39868H29.5747V7.99742H31.6872V6.39868Z" fill="#0F3510"/>
<path d="M29.5744 6.39868H27.4619V7.99742H29.5744V6.39868Z" fill="#0F3510"/>
<path d="M27.4621 6.39868H25.3496V7.99742H27.4621V6.39868Z" fill="#0F3510"/>
<path d="M25.3498 6.39868H23.2373V7.99742H25.3498V6.39868Z" fill="#1A541B"/>
<path d="M23.237 6.39868H21.1245V7.99742H23.237V6.39868Z" fill="#176319"/>
<path d="M21.1247 6.39868H19.0122V7.99742H21.1247V6.39868Z" fill="#176319"/>
<path d="M19.0124 6.39868H16.8999V7.99742H19.0124V6.39868Z" fill="#0F3510"/>
<path d="M16.8997 6.39868H14.7872V7.99742H16.8997V6.39868Z" fill="#0B4D0C"/>
<path d="M14.7873 6.39868H12.6748V7.99742H14.7873V6.39868Z" fill="#0F3510"/>
<path d="M12.6745 6.39868H10.562V7.99742H12.6745V6.39868Z" fill="#176319"/>
<path d="M44.362 4.7998H42.2495V6.39854H44.362V4.7998Z" fill="#0F3510"/>
<path d="M42.2493 4.7998H40.1368V6.39854H42.2493V4.7998Z" fill="#0F3510"/>
<path d="M40.1369 4.7998H38.0244V6.39854H40.1369V4.7998Z" fill="#0F3510"/>
<path d="M35.9118 4.7998H33.7993V6.39854H35.9118V4.7998Z" fill="#1A4D1C"/>
<path d="M33.7995 4.7998H31.687V6.39854H33.7995V4.7998Z" fill="#0F3510"/>
<path d="M31.6872 4.7998H29.5747V6.39854H31.6872V4.7998Z" fill="#0F3510"/>
<path d="M29.5744 4.7998H27.4619V6.39854H29.5744V4.7998Z" fill="#0F3510"/>
<path d="M27.4621 4.7998H25.3496V6.39854H27.4621V4.7998Z" fill="#176319"/>
<path d="M25.3498 4.7998H23.2373V6.39854H25.3498V4.7998Z" fill="#176319"/>
<path d="M23.237 4.7998H21.1245V6.39854H23.237V4.7998Z" fill="#176319"/>
<path d="M21.1247 4.7998H19.0122V6.39854H21.1247V4.7998Z" fill="#176319"/>
<path d="M19.0124 4.7998H16.8999V6.39854H19.0124V4.7998Z" fill="#0B4D0C"/>
<path d="M16.8997 4.7998H14.7872V6.39854H16.8997V4.7998Z" fill="#0F3510"/>
<path d="M14.7873 4.7998H12.6748V6.39854H14.7873V4.7998Z" fill="#0F3510"/>
<path d="M12.6745 4.7998H10.562V6.39854H12.6745V4.7998Z" fill="#176319"/>
<path d="M12.6745 3.20117H10.562V4.79991H12.6745V3.20117Z" fill="#176319"/>
<path d="M12.6745 1.59863H10.562V3.19737H12.6745V1.59863Z" fill="#176319"/>
<path d="M42.2493 3.20117H40.1368V4.79991H42.2493V3.20117Z" fill="#0F3510"/>
<path d="M40.1369 3.20117H38.0244V4.79991H40.1369V3.20117Z" fill="#0F3510"/>
<path d="M38.0246 3.20117H35.9121V4.79991H38.0246V3.20117Z" fill="#0F3510"/>
<path d="M35.9118 3.20117H33.7993V4.79991H35.9118V3.20117Z" fill="#0F3510"/>
<path d="M33.7995 3.20117H31.687V4.79991H33.7995V3.20117Z" fill="#0F3510"/>
<path d="M31.6872 3.20117H29.5747V4.79991H31.6872V3.20117Z" fill="#0F3510"/>
<path d="M29.5744 3.20117H27.4619V4.79991H29.5744V3.20117Z" fill="#176319"/>
<path d="M27.4621 3.20117H25.3496V4.79991H27.4621V3.20117Z" fill="#176319"/>
<path d="M25.3498 3.20117H23.2373V4.79991H25.3498V3.20117Z" fill="#176319"/>
<path d="M23.237 3.20117H21.1245V4.79991H23.237V3.20117Z" fill="#176319"/>
<path d="M19.0124 3.20117H16.8999V4.79991H19.0124V3.20117Z" fill="#0F3510"/>
<path d="M16.8997 3.20117H14.7872V4.79991H16.8997V3.20117Z" fill="#0F3510"/>
<path d="M14.7873 3.20117H12.6748V4.79991H14.7873V3.20117Z" fill="#0F3510"/>
<path d="M19.0124 1.59863H16.8999V3.19737H19.0124V1.59863Z" fill="#0F3510"/>
<path d="M16.8997 1.59863H14.7872V3.19737H16.8997V1.59863Z" fill="#0F3510"/>
<path d="M14.7873 1.59863H12.6748V3.19737H14.7873V1.59863Z" fill="#0F3510"/>
<path d="M40.1369 1.59863H38.0244V3.19737H40.1369V1.59863Z" fill="#0F3510"/>
<path d="M38.0246 1.59863H35.9121V3.19737H38.0246V1.59863Z" fill="#0F3510"/>
<path d="M35.9118 1.59863H33.7993V3.19737H35.9118V1.59863Z" fill="#0F3510"/>
<path d="M33.7995 1.59863H31.687V3.19737H33.7995V1.59863Z" fill="#1F5421"/>
<path d="M31.6872 1.59863H29.5747V3.19737H31.6872V1.59863Z" fill="#176319"/>
<path d="M29.5744 1.59863H27.4619V3.19737H29.5744V1.59863Z" fill="#176319"/>
<path d="M27.4621 1.59863H25.3496V3.19737H27.4621V1.59863Z" fill="#176319"/>
<path d="M25.3498 1.59863H23.2373V3.19737H25.3498V1.59863Z" fill="#176319"/>
<path d="M38.0246 0H35.9121V1.59874H38.0246V0Z" fill="#0F3510"/>
<path d="M35.9118 0H33.7993V1.59874H35.9118V0Z" fill="#176319"/>
</svg>
