<svg width="46" height="21" viewBox="0 0 46 21" fill="none" xmlns="http://www.w3.org/2000/svg">
<rect x="0.000976562" width="46" height="21" fill="#2C8B2F"/>
<path d="M17.6424 5.54545V15H16.3313L11.5256 8.06605H11.4379V15H10.0114V5.54545H11.3317L16.142 12.4886H16.2298V5.54545H17.6424ZM22.6686 15.1431C21.97 15.1431 21.3683 14.9938 20.8635 14.6953C20.3619 14.3937 19.9741 13.9705 19.7002 13.4258C19.4294 12.878 19.2939 12.2363 19.2939 11.5007C19.2939 10.7744 19.4294 10.1342 19.7002 9.58026C19.9741 9.02628 20.3557 8.59387 20.8451 8.28303C21.3375 7.97218 21.913 7.81676 22.5716 7.81676C22.9717 7.81676 23.3595 7.88293 23.735 8.01527C24.1105 8.14761 24.4475 8.35535 24.746 8.63849C25.0445 8.92164 25.28 9.28942 25.4523 9.74183C25.6247 10.1912 25.7108 10.7375 25.7108 11.3807V11.87H20.0741V10.8359H24.3582C24.3582 10.4728 24.2844 10.1512 24.1366 9.87109C23.9889 9.58795 23.7812 9.36482 23.5134 9.2017C23.2487 9.03859 22.9379 8.95703 22.5809 8.95703C22.1931 8.95703 21.8546 9.05244 21.5653 9.24325C21.279 9.43099 21.0574 9.6772 20.9005 9.98189C20.7466 10.2835 20.6697 10.6113 20.6697 10.9652V11.7731C20.6697 12.247 20.7528 12.6502 20.9189 12.9826C21.0882 13.315 21.3237 13.5689 21.6253 13.7443C21.9269 13.9167 22.2793 14.0028 22.6824 14.0028C22.944 14.0028 23.1826 13.9659 23.398 13.892C23.6134 13.8151 23.7996 13.7012 23.9566 13.5504C24.1135 13.3996 24.2336 13.2134 24.3167 12.9918L25.6231 13.2273C25.5185 13.612 25.3308 13.949 25.0599 14.2383C24.7922 14.5245 24.4552 14.7476 24.0489 14.9077C23.6457 15.0646 23.1856 15.1431 22.6686 15.1431ZM28.767 15L26.6803 7.90909H28.1068L29.4964 13.1165H29.5656L30.9598 7.90909H32.3863L33.7712 13.0934H33.8405L35.2208 7.90909H36.6473L34.5653 15H33.1572L31.7169 9.88033H31.6107L30.1704 15H28.767Z" fill="white"/>
</svg>
