<svg width="252" height="48" viewBox="0 0 252 48" fill="none" xmlns="http://www.w3.org/2000/svg">
<path d="M96.8752 21.2307V45.2307H91.9515V28.4887L85.66 45.2307H81.3714L75.0753 28.5567V45.2307H70.1191V21.2307H76.1463L83.5969 39.2829L90.913 21.2307H96.8752Z" fill="#174516"/>
<path d="M106.745 24.2599V30.7211H116.078V34.5335H106.745V41.2414H117.173V45.2308H101.489V20.3077H117.173V24.2599H106.745Z" fill="#174516"/>
<path d="M138.394 20.3077V24.2599H131.265V45.2308H126.113V24.2831H119.019V20.3077H138.394Z" fill="#174516"/>
<path d="M156.066 40.3482H145.69L143.857 45.2307H138.394L147.904 21.2307H153.808L163.304 45.2307H157.841L156.066 40.3482ZM154.674 36.6671L150.859 26.426L147.044 36.6671H154.674Z" fill="#174516"/>
<path d="M171.183 35.9813V45.2308H166.072V20.3077H175.389C178.411 20.3077 180.688 21.0138 182.221 22.4258C183.754 23.8378 184.522 25.7557 184.525 28.1794C184.525 30.5581 183.731 32.4481 182.135 33.8632C180.538 35.2783 178.31 35.9813 175.375 35.9813H171.183ZM179.338 28.1794C179.375 27.6581 179.301 27.1349 179.12 26.643C178.939 26.151 178.655 25.701 178.286 25.3212C177.588 24.6602 176.436 24.3297 174.844 24.3297H171.183V31.9919H174.84C177.842 31.9919 179.341 30.7211 179.338 28.1794Z" fill="#174516"/>
<path d="M205.858 21.8942C207.81 22.9398 209.417 24.4716 210.505 26.3215C211.62 28.305 212.204 30.5156 212.204 32.7602C212.204 35.0048 211.62 37.2153 210.505 39.1988C209.419 41.0548 207.812 42.593 205.858 43.6443C203.845 44.6852 201.586 45.2308 199.289 45.2308C196.992 45.2308 194.733 44.6852 192.72 43.6443C190.765 42.5943 189.157 41.0558 188.073 39.1988C186.955 37.2162 186.37 35.0053 186.37 32.7602C186.37 30.515 186.955 28.3042 188.073 26.3215C189.159 24.4706 190.767 22.9385 192.72 21.8942C194.733 20.8534 196.992 20.3077 199.289 20.3077C201.586 20.3077 203.845 20.8534 205.858 21.8942V21.8942ZM195.277 25.7761C194.113 26.4362 193.177 27.4012 192.585 28.5534C191.945 29.8789 191.615 31.3179 191.615 32.7738C191.615 34.2297 191.945 35.6688 192.585 36.9943C193.177 38.1465 194.113 39.1114 195.277 39.7716C196.499 40.4038 197.871 40.7353 199.265 40.7353C200.659 40.7353 202.031 40.4038 203.253 39.7716C204.415 39.1097 205.348 38.1451 205.94 36.9943C206.58 35.6688 206.91 34.2297 206.91 32.7738C206.91 31.3179 206.58 29.8789 205.94 28.5534C205.348 27.4025 204.415 26.4379 203.253 25.7761C202.031 25.1438 200.659 24.8124 199.265 24.8124C197.871 24.8124 196.499 25.1438 195.277 25.7761V25.7761Z" fill="#174516"/>
<path d="M220.472 41.4183H229.733V45.2308H214.971V20.3077H220.472V41.4183Z" fill="#174516"/>
<path d="M251.876 20.3077L243.356 36.5119V45.2308H238.292V36.5119L229.733 20.3077H235.512L240.859 31.2145L246.21 20.3077H251.876Z" fill="#174516"/>
<path d="M38.0246 46.4012H35.9121V48H38.0246V46.4012Z" fill="#2D672D"/>
<path d="M35.9118 46.4012H33.7993V48H35.9118V46.4012Z" fill="#2D672D"/>
<path d="M33.7995 46.4012H31.687V48H33.7995V46.4012Z" fill="#46A949"/>
<path d="M31.6872 46.4012H29.5747V48H31.6872V46.4012Z" fill="#2D9B31"/>
<path d="M29.5744 46.4012H27.4619V48H29.5744V46.4012Z" fill="#2C8B2F"/>
<path d="M27.4621 46.4012H25.3496V48H27.4621V46.4012Z" fill="#2C8B2F"/>
<path d="M25.3495 46.4012H23.2371V48H25.3495V46.4012Z" fill="#1E8021"/>
<path d="M23.237 46.4012H21.1245V48H23.237V46.4012Z" fill="#2C8B2F"/>
<path d="M21.1247 46.4012H19.0122V48H21.1247V46.4012Z" fill="#1E8021"/>
<path d="M19.0121 46.4012H16.8997V48H19.0121V46.4012Z" fill="#2C8B2F"/>
<path d="M16.8996 46.4012H14.7871V48H16.8996V46.4012Z" fill="#20571F"/>
<path d="M54.924 44.7988H52.8115V46.3975H54.924V44.7988Z" fill="#2C8B2F"/>
<path d="M52.8117 44.7988H50.6992V46.3975H52.8117V44.7988Z" fill="#2C8B2F"/>
<path d="M50.6994 44.7988H48.5869V46.3975H50.6994V44.7988Z" fill="#2C8B2F"/>
<path d="M48.5866 44.7988H46.4741V46.3975H48.5866V44.7988Z" fill="#255125"/>
<path d="M46.4743 44.7988H44.3618V46.3975H46.4743V44.7988Z" fill="#143214"/>
<path d="M44.362 44.7988H42.2495V46.3975H44.362V44.7988Z" fill="#174516"/>
<path d="M42.2492 44.7988H40.1367V46.3975H42.2492V44.7988Z" fill="#174516"/>
<path d="M40.1369 44.7988H38.0244V46.3975H40.1369V44.7988Z" fill="#174516"/>
<path d="M38.0246 44.7988H35.9121V46.3975H38.0246V44.7988Z" fill="#174516"/>
<path d="M35.9118 44.7988H33.7993V46.3975H35.9118V44.7988Z" fill="#174516"/>
<path d="M33.7995 44.7988H31.687V46.3975H33.7995V44.7988Z" fill="#2C8B2F"/>
<path d="M31.6872 44.7988H29.5747V46.3975H31.6872V44.7988Z" fill="#1E8021"/>
<path d="M29.5744 44.7988H27.4619V46.3975H29.5744V44.7988Z" fill="#2C8B2F"/>
<path d="M27.4621 44.7988H25.3496V46.3975H27.4621V44.7988Z" fill="#1E8021"/>
<path d="M25.3495 44.7988H23.2371V46.3975H25.3495V44.7988Z" fill="#2C8B2F"/>
<path d="M23.237 44.7988H21.1245V46.3975H23.237V44.7988Z" fill="#1E8021"/>
<path d="M21.1247 44.7988H19.0122V46.3975H21.1247V44.7988Z" fill="#2C8B2F"/>
<path d="M19.0121 44.7988H16.8997V46.3975H19.0121V44.7988Z" fill="#2C8B2F"/>
<path d="M16.8996 44.7988H14.7871V46.3975H16.8996V44.7988Z" fill="#20571F"/>
<path d="M14.7873 44.7988H12.6748V46.3975H14.7873V44.7988Z" fill="#20571F"/>
<path d="M12.6747 44.7988H10.5623V46.3975H12.6747V44.7988Z" fill="#20571F"/>
<path d="M54.924 43.2H52.8115V44.7988H54.924V43.2Z" fill="#2C8B2F"/>
<path d="M52.8117 43.2H50.6992V44.7988H52.8117V43.2Z" fill="#1E8021"/>
<path d="M50.6994 43.2H48.5869V44.7988H50.6994V43.2Z" fill="#2C8B2F"/>
<path d="M48.5866 43.2H46.4741V44.7988H48.5866V43.2Z" fill="#255125"/>
<path d="M46.4743 43.2H44.3618V44.7988H46.4743V43.2Z" fill="#143214"/>
<path d="M44.362 43.2H42.2495V44.7988H44.362V43.2Z" fill="#174516"/>
<path d="M42.2492 43.2H40.1367V44.7988H42.2492V43.2Z" fill="#174516"/>
<path d="M40.1369 43.2H38.0244V44.7988H40.1369V43.2Z" fill="#174516"/>
<path d="M38.0246 43.2H35.9121V44.7988H38.0246V43.2Z" fill="#174516"/>
<path d="M35.9118 43.2H33.7993V44.7988H35.9118V43.2Z" fill="#174516"/>
<path d="M33.7995 43.2H31.687V44.7988H33.7995V43.2Z" fill="#2C8B2F"/>
<path d="M31.6872 43.2H29.5747V44.7988H31.6872V43.2Z" fill="#2C8B2F"/>
<path d="M29.5744 43.2H27.4619V44.7988H29.5744V43.2Z" fill="#2C8B2F"/>
<path d="M27.4621 43.2H25.3496V44.7988H27.4621V43.2Z" fill="#2C8B2F"/>
<path d="M25.3495 43.2H23.2371V44.7988H25.3495V43.2Z" fill="#2C8B2F"/>
<path d="M23.237 43.2H21.1245V44.7988H23.237V43.2Z" fill="#2C8B2F"/>
<path d="M21.1247 43.2H19.0122V44.7988H21.1247V43.2Z" fill="#1E8021"/>
<path d="M19.0121 43.2H16.8997V44.7988H19.0121V43.2Z" fill="#2C8B2F"/>
<path d="M16.8996 43.2H14.7871V44.7988H16.8996V43.2Z" fill="#174516"/>
<path d="M14.7873 43.2H12.6748V44.7988H14.7873V43.2Z" fill="#20571F"/>
<path d="M12.6747 43.2H10.5623V44.7988H12.6747V43.2Z" fill="#20571F"/>
<path d="M10.5624 43.2H8.44995V44.7988H10.5624V43.2Z" fill="#174516"/>
<path d="M8.44987 43.2H6.3374V44.7988H8.44987V43.2Z" fill="#20571F"/>
<path d="M54.924 41.6012H52.8115V43.2H54.924V41.6012Z" fill="#2C8B2F"/>
<path d="M52.8117 41.6012H50.6992V43.2H52.8117V41.6012Z" fill="#2C8B2F"/>
<path d="M50.6994 41.6012H48.5869V43.2H50.6994V41.6012Z" fill="#2C8B2F"/>
<path d="M48.5866 41.6012H46.4741V43.2H48.5866V41.6012Z" fill="#255125"/>
<path d="M46.4743 41.6012H44.3618V43.2H46.4743V41.6012Z" fill="#143214"/>
<path d="M44.362 41.6012H42.2495V43.2H44.362V41.6012Z" fill="#174516"/>
<path d="M42.2492 41.6012H40.1367V43.2H42.2492V41.6012Z" fill="#0D350C"/>
<path d="M40.1369 41.6012H38.0244V43.2H40.1369V41.6012Z" fill="#174516"/>
<path d="M38.0246 41.6012H35.9121V43.2H38.0246V41.6012Z" fill="#174516"/>
<path d="M35.9118 41.6012H33.7993V43.2H35.9118V41.6012Z" fill="#174516"/>
<path d="M33.7995 41.6012H31.687V43.2H33.7995V41.6012Z" fill="#2C8B2F"/>
<path d="M31.6872 41.6012H29.5747V43.2H31.6872V41.6012Z" fill="#1E8021"/>
<path d="M29.5744 41.6012H27.4619V43.2H29.5744V41.6012Z" fill="#2C8B2F"/>
<path d="M27.4621 41.6012H25.3496V43.2H27.4621V41.6012Z" fill="#1E8021"/>
<path d="M25.3495 41.6012H23.2371V43.2H25.3495V41.6012Z" fill="#2C8B2F"/>
<path d="M23.237 41.6012H21.1245V43.2H23.237V41.6012Z" fill="#2C8B2F"/>
<path d="M21.1247 41.6012H19.0122V43.2H21.1247V41.6012Z" fill="#2C8B2F"/>
<path d="M19.0121 41.6012H16.8997V43.2H19.0121V41.6012Z" fill="#1E8021"/>
<path d="M16.8996 41.6012H14.7871V43.2H16.8996V41.6012Z" fill="#20571F"/>
<path d="M14.7873 41.6012H12.6748V43.2H14.7873V41.6012Z" fill="#20571F"/>
<path d="M12.6747 41.6012H10.5623V43.2H12.6747V41.6012Z" fill="#20571F"/>
<path d="M10.5624 41.6012H8.44995V43.2H10.5624V41.6012Z" fill="#20571F"/>
<path d="M8.44987 41.6012H6.3374V43.2H8.44987V41.6012Z" fill="#20571F"/>
<path d="M54.924 39.9987H52.8115V41.5975H54.924V39.9987Z" fill="#2C8B2F"/>
<path d="M52.8117 39.9987H50.6992V41.5975H52.8117V39.9987Z" fill="#2C8B2F"/>
<path d="M50.6994 39.9987H48.5869V41.5975H50.6994V39.9987Z" fill="#1E8021"/>
<path d="M48.5866 39.9987H46.4741V41.5975H48.5866V39.9987Z" fill="#255125"/>
<path d="M46.4743 39.9987H44.3618V41.5975H46.4743V39.9987Z" fill="#143214"/>
<path d="M44.362 39.9987H42.2495V41.5975H44.362V39.9987Z" fill="#174516"/>
<path d="M42.2492 39.9987H40.1367V41.5975H42.2492V39.9987Z" fill="#174516"/>
<path d="M40.1369 39.9987H38.0244V41.5975H40.1369V39.9987Z" fill="#0D350C"/>
<path d="M38.0246 39.9987H35.9121V41.5975H38.0246V39.9987Z" fill="#174516"/>
<path d="M35.9118 39.9987H33.7993V41.5975H35.9118V39.9987Z" fill="#174516"/>
<path d="M33.7995 39.9987H31.687V41.5975H33.7995V39.9987Z" fill="#2C8B2F"/>
<path d="M31.6872 39.9987H29.5747V41.5975H31.6872V39.9987Z" fill="#2C8B2F"/>
<path d="M29.5744 39.9987H27.4619V41.5975H29.5744V39.9987Z" fill="#2C8B2F"/>
<path d="M27.4621 39.9987H25.3496V41.5975H27.4621V39.9987Z" fill="#2C8B2F"/>
<path d="M25.3495 39.9987H23.2371V41.5975H25.3495V39.9987Z" fill="#1E8021"/>
<path d="M23.237 39.9987H21.1245V41.5975H23.237V39.9987Z" fill="#2C8B2F"/>
<path d="M21.1247 39.9987H19.0122V41.5975H21.1247V39.9987Z" fill="#2C8B2F"/>
<path d="M19.0121 39.9987H16.8997V41.5975H19.0121V39.9987Z" fill="#2C8B2F"/>
<path d="M16.8996 39.9987H14.7871V41.5975H16.8996V39.9987Z" fill="#20571F"/>
<path d="M14.7873 39.9987H12.6748V41.5975H14.7873V39.9987Z" fill="#20571F"/>
<path d="M12.6747 39.9987H10.5623V41.5975H12.6747V39.9987Z" fill="#174516"/>
<path d="M10.5624 39.9987H8.44995V41.5975H10.5624V39.9987Z" fill="#20571F"/>
<path d="M8.44987 39.9987H6.3374V41.5975H8.44987V39.9987Z" fill="#20571F"/>
<path d="M54.924 38.4H52.8115V39.9988H54.924V38.4Z" fill="#2C8B2F"/>
<path d="M52.8117 38.4H50.6992V39.9988H52.8117V38.4Z" fill="#2C8B2F"/>
<path d="M50.6994 38.4H48.5869V39.9988H50.6994V38.4Z" fill="#2C8B2F"/>
<path d="M48.5866 38.4H46.4741V39.9988H48.5866V38.4Z" fill="#255125"/>
<path d="M46.4743 38.4H44.3618V39.9988H46.4743V38.4Z" fill="#143214"/>
<path d="M44.362 38.4H42.2495V39.9988H44.362V38.4Z" fill="#174516"/>
<path d="M42.2492 38.4H40.1367V39.9988H42.2492V38.4Z" fill="#174516"/>
<path d="M40.1369 38.4H38.0244V39.9988H40.1369V38.4Z" fill="#174516"/>
<path d="M38.0246 38.4H35.9121V39.9988H38.0246V38.4Z" fill="#174516"/>
<path d="M35.9118 38.4H33.7993V39.9988H35.9118V38.4Z" fill="#174516"/>
<path d="M33.7995 38.4H31.687V39.9988H33.7995V38.4Z" fill="#2C8B2F"/>
<path d="M31.6872 38.4H29.5747V39.9988H31.6872V38.4Z" fill="#2C8B2F"/>
<path d="M29.5744 38.4H27.4619V39.9988H29.5744V38.4Z" fill="#1E8021"/>
<path d="M27.4621 38.4H25.3496V39.9988H27.4621V38.4Z" fill="#2C8B2F"/>
<path d="M25.3495 38.4H23.2371V39.9988H25.3495V38.4Z" fill="#2C8B2F"/>
<path d="M23.237 38.4H21.1245V39.9988H23.237V38.4Z" fill="#2C8B2F"/>
<path d="M21.1247 38.4H19.0122V39.9988H21.1247V38.4Z" fill="#1E8021"/>
<path d="M19.0121 38.4H16.8997V39.9988H19.0121V38.4Z" fill="#2C8B2F"/>
<path d="M16.8996 38.4H14.7871V39.9988H16.8996V38.4Z" fill="#174516"/>
<path d="M14.7873 38.4H12.6748V39.9988H14.7873V38.4Z" fill="#20571F"/>
<path d="M12.6747 38.4H10.5623V39.9988H12.6747V38.4Z" fill="#20571F"/>
<path d="M10.5624 38.4H8.44995V39.9988H10.5624V38.4Z" fill="#174516"/>
<path d="M8.44987 38.4H6.3374V39.9988H8.44987V38.4Z" fill="#20571F"/>
<path d="M54.924 36.8012H52.8115V38.3999H54.924V36.8012Z" fill="#2C8B2F"/>
<path d="M52.8117 36.8012H50.6992V38.3999H52.8117V36.8012Z" fill="#1E8021"/>
<path d="M50.6994 36.8012H48.5869V38.3999H50.6994V36.8012Z" fill="#2C8B2F"/>
<path d="M48.5866 36.8012H46.4741V38.3999H48.5866V36.8012Z" fill="#255125"/>
<path d="M46.4743 36.8012H44.3618V38.3999H46.4743V36.8012Z" fill="#143214"/>
<path d="M44.362 36.8012H42.2495V38.3999H44.362V36.8012Z" fill="#0D350C"/>
<path d="M42.2492 36.8012H40.1367V38.3999H42.2492V36.8012Z" fill="#174516"/>
<path d="M40.1369 36.8012H38.0244V38.3999H40.1369V36.8012Z" fill="#174516"/>
<path d="M38.0246 36.8012H35.9121V38.3999H38.0246V36.8012Z" fill="#174516"/>
<path d="M35.9118 36.8012H33.7993V38.3999H35.9118V36.8012Z" fill="#174516"/>
<path d="M33.7995 36.8012H31.687V38.3999H33.7995V36.8012Z" fill="#1E8021"/>
<path d="M31.6872 36.8012H29.5747V38.3999H31.6872V36.8012Z" fill="#2C8B2F"/>
<path d="M29.5744 36.8012H27.4619V38.3999H29.5744V36.8012Z" fill="#2C8B2F"/>
<path d="M27.4621 36.8012H25.3496V38.3999H27.4621V36.8012Z" fill="#1E8021"/>
<path d="M25.3495 36.8012H23.2371V38.3999H25.3495V36.8012Z" fill="#2C8B2F"/>
<path d="M23.237 36.8012H21.1245V38.3999H23.237V36.8012Z" fill="#2C8B2F"/>
<path d="M21.1247 36.8012H19.0122V38.3999H21.1247V36.8012Z" fill="#2C8B2F"/>
<path d="M19.0121 36.8012H16.8997V38.3999H19.0121V36.8012Z" fill="#1E8021"/>
<path d="M16.8996 36.8012H14.7871V38.3999H16.8996V36.8012Z" fill="#20571F"/>
<path d="M14.7873 36.8012H12.6748V38.3999H14.7873V36.8012Z" fill="#20571F"/>
<path d="M12.6747 36.8012H10.5623V38.3999H12.6747V36.8012Z" fill="#20571F"/>
<path d="M10.5624 36.8012H8.44995V38.3999H10.5624V36.8012Z" fill="#20571F"/>
<path d="M8.44987 36.8012H6.3374V38.3999H8.44987V36.8012Z" fill="#20571F"/>
<path d="M54.924 35.1987H52.8115V36.7975H54.924V35.1987Z" fill="#2C8B2F"/>
<path d="M52.8117 35.1987H50.6992V36.7975H52.8117V35.1987Z" fill="#2C8B2F"/>
<path d="M50.6994 35.1987H48.5869V36.7975H50.6994V35.1987Z" fill="#2C8B2F"/>
<path d="M48.5866 35.1987H46.4741V36.7975H48.5866V35.1987Z" fill="#255125"/>
<path d="M46.4743 35.1987H44.3618V36.7975H46.4743V35.1987Z" fill="#143214"/>
<path d="M44.362 35.1987H42.2495V36.7975H44.362V35.1987Z" fill="#174516"/>
<path d="M42.2492 35.1987H40.1367V36.7975H42.2492V35.1987Z" fill="#0D350C"/>
<path d="M40.1369 35.1987H38.0244V36.7975H40.1369V35.1987Z" fill="#174516"/>
<path d="M38.0246 35.1987H35.9121V36.7975H38.0246V35.1987Z" fill="#174516"/>
<path d="M35.9118 35.1987H33.7993V36.7975H35.9118V35.1987Z" fill="#174516"/>
<path d="M33.7995 35.1987H31.687V36.7975H33.7995V35.1987Z" fill="#2C8B2F"/>
<path d="M31.6872 35.1987H29.5747V36.7975H31.6872V35.1987Z" fill="#2C8B2F"/>
<path d="M29.5744 35.1987H27.4619V36.7975H29.5744V35.1987Z" fill="#2C8B2F"/>
<path d="M27.4621 35.1987H25.3496V36.7975H27.4621V35.1987Z" fill="#2C8B2F"/>
<path d="M25.3495 35.1987H23.2371V36.7975H25.3495V35.1987Z" fill="#2C8B2F"/>
<path d="M23.237 35.1987H21.1245V36.7975H23.237V35.1987Z" fill="#1E8021"/>
<path d="M21.1247 35.1987H19.0122V36.7975H21.1247V35.1987Z" fill="#2C8B2F"/>
<path d="M19.0121 35.1987H16.8997V36.7975H19.0121V35.1987Z" fill="#2C8B2F"/>
<path d="M16.8996 35.1987H14.7871V36.7975H16.8996V35.1987Z" fill="#20571F"/>
<path d="M14.7873 35.1987H12.6748V36.7975H14.7873V35.1987Z" fill="#20571F"/>
<path d="M12.6747 35.1987H10.5623V36.7975H12.6747V35.1987Z" fill="#174516"/>
<path d="M10.5624 35.1987H8.44995V36.7975H10.5624V35.1987Z" fill="#20571F"/>
<path d="M8.44987 35.1987H6.3374V36.7975H8.44987V35.1987Z" fill="#20571F"/>
<path d="M54.924 33.6H52.8115V35.1987H54.924V33.6Z" fill="#1E8021"/>
<path d="M52.8117 33.6H50.6992V35.1987H52.8117V33.6Z" fill="#2C8B2F"/>
<path d="M50.6994 33.6H48.5869V35.1987H50.6994V33.6Z" fill="#2C8B2F"/>
<path d="M48.5866 33.6H46.4741V35.1987H48.5866V33.6Z" fill="#255125"/>
<path d="M46.4743 33.6H44.3618V35.1987H46.4743V33.6Z" fill="#143214"/>
<path d="M44.362 33.6H42.2495V35.1987H44.362V33.6Z" fill="#174516"/>
<path d="M42.2492 33.6H40.1367V35.1987H42.2492V33.6Z" fill="#174516"/>
<path d="M40.1369 33.6H38.0244V35.1987H40.1369V33.6Z" fill="#174516"/>
<path d="M38.0246 33.6H35.9121V35.1987H38.0246V33.6Z" fill="#174516"/>
<path d="M35.9118 33.6H33.7993V35.1987H35.9118V33.6Z" fill="#174516"/>
<path d="M33.7995 33.6H31.687V35.1987H33.7995V33.6Z" fill="#2C8B2F"/>
<path d="M31.6872 33.6H29.5747V35.1987H31.6872V33.6Z" fill="#2C8B2F"/>
<path d="M29.5744 33.6H27.4619V35.1987H29.5744V33.6Z" fill="#1E8021"/>
<path d="M27.4621 33.6H25.3496V35.1987H27.4621V33.6Z" fill="#2C8B2F"/>
<path d="M25.3495 33.6H23.2371V35.1987H25.3495V33.6Z" fill="#2C8B2F"/>
<path d="M23.237 33.6H21.1245V35.1987H23.237V33.6Z" fill="#2C8B2F"/>
<path d="M21.1247 33.6H19.0122V35.1987H21.1247V33.6Z" fill="#1E8021"/>
<path d="M19.0121 33.6H16.8997V35.1987H19.0121V33.6Z" fill="#2C8B2F"/>
<path d="M16.8996 33.6H14.7871V35.1987H16.8996V33.6Z" fill="#20571F"/>
<path d="M14.7873 33.6H12.6748V35.1987H14.7873V33.6Z" fill="#20571F"/>
<path d="M12.6747 33.6H10.5623V35.1987H12.6747V33.6Z" fill="#20571F"/>
<path d="M10.5624 33.6H8.44995V35.1987H10.5624V33.6Z" fill="#20571F"/>
<path d="M8.44987 33.6H6.3374V35.1987H8.44987V33.6Z" fill="#20571F"/>
<path d="M54.924 32.0012H52.8115V33.6H54.924V32.0012Z" fill="#2C8B2F"/>
<path d="M52.8117 32.0012H50.6992V33.6H52.8117V32.0012Z" fill="#2C8B2F"/>
<path d="M50.6994 32.0012H48.5869V33.6H50.6994V32.0012Z" fill="#2C8B2F"/>
<path d="M48.5866 32.0012H46.4741V33.6H48.5866V32.0012Z" fill="#255125"/>
<path d="M46.4743 32.0012H44.3618V33.6H46.4743V32.0012Z" fill="#143214"/>
<path d="M44.362 32.0012H42.2495V33.6H44.362V32.0012Z" fill="#174516"/>
<path d="M42.2492 32.0012H40.1367V33.6H42.2492V32.0012Z" fill="#174516"/>
<path d="M40.1369 32.0012H38.0244V33.6H40.1369V32.0012Z" fill="#174516"/>
<path d="M38.0246 32.0012H35.9121V33.6H38.0246V32.0012Z" fill="#0D350C"/>
<path d="M35.9118 32.0012H33.7993V33.6H35.9118V32.0012Z" fill="#174516"/>
<path d="M33.7995 32.0012H31.687V33.6H33.7995V32.0012Z" fill="#2C8B2F"/>
<path d="M31.6872 32.0012H29.5747V33.6H31.6872V32.0012Z" fill="#2C8B2F"/>
<path d="M29.5744 32.0012H27.4619V33.6H29.5744V32.0012Z" fill="#2C8B2F"/>
<path d="M27.4621 32.0012H25.3496V33.6H27.4621V32.0012Z" fill="#1E8021"/>
<path d="M25.3495 32.0012H23.2371V33.6H25.3495V32.0012Z" fill="#2C8B2F"/>
<path d="M23.237 32.0012H21.1245V33.6H23.237V32.0012Z" fill="#2C8B2F"/>
<path d="M21.1247 32.0012H19.0122V33.6H21.1247V32.0012Z" fill="#2C8B2F"/>
<path d="M19.0121 32.0012H16.8997V33.6H19.0121V32.0012Z" fill="#2C8B2F"/>
<path d="M16.8996 32.0012H14.7871V33.6H16.8996V32.0012Z" fill="#20571F"/>
<path d="M14.7873 32.0012H12.6748V33.6H14.7873V32.0012Z" fill="#20571F"/>
<path d="M12.6747 32.0012H10.5623V33.6H12.6747V32.0012Z" fill="#20571F"/>
<path d="M10.5624 32.0012H8.44995V33.6H10.5624V32.0012Z" fill="#20571F"/>
<path d="M8.44987 32.0012H6.3374V33.6H8.44987V32.0012Z" fill="#174516"/>
<path d="M54.924 30.3987H52.8115V31.9974H54.924V30.3987Z" fill="#2C8B2F"/>
<path d="M52.8117 30.3987H50.6992V31.9974H52.8117V30.3987Z" fill="#2C8B2F"/>
<path d="M50.6994 30.3987H48.5869V31.9974H50.6994V30.3987Z" fill="#1E8021"/>
<path d="M48.5866 30.3987H46.4741V31.9974H48.5866V30.3987Z" fill="#255125"/>
<path d="M46.4743 30.3987H44.3618V31.9974H46.4743V30.3987Z" fill="#143214"/>
<path d="M44.362 30.3987H42.2495V31.9974H44.362V30.3987Z" fill="#174516"/>
<path d="M42.2492 30.3987H40.1367V31.9974H42.2492V30.3987Z" fill="#174516"/>
<path d="M40.1369 30.3987H38.0244V31.9974H40.1369V30.3987Z" fill="#174516"/>
<path d="M38.0246 30.3987H35.9121V31.9974H38.0246V30.3987Z" fill="#174516"/>
<path d="M35.9118 30.3987H33.7993V31.9974H35.9118V30.3987Z" fill="#0D350C"/>
<path d="M33.7995 30.3987H31.687V31.9974H33.7995V30.3987Z" fill="#1E8021"/>
<path d="M31.6872 30.3987H29.5747V31.9974H31.6872V30.3987Z" fill="#2C8B2F"/>
<path d="M29.5744 30.3987H27.4619V31.9974H29.5744V30.3987Z" fill="#2C8B2F"/>
<path d="M27.4621 30.3987H25.3496V31.9974H27.4621V30.3987Z" fill="#2C8B2F"/>
<path d="M25.3495 30.3987H23.2371V31.9974H25.3495V30.3987Z" fill="#2C8B2F"/>
<path d="M23.237 30.3987H21.1245V31.9974H23.237V30.3987Z" fill="#1E8021"/>
<path d="M21.1247 30.3987H19.0122V31.9974H21.1247V30.3987Z" fill="#2C8B2F"/>
<path d="M19.0121 30.3987H16.8997V31.9974H19.0121V30.3987Z" fill="#2C8B2F"/>
<path d="M16.8996 30.3987H14.7871V31.9974H16.8996V30.3987Z" fill="#20571F"/>
<path d="M14.7873 30.3987H12.6748V31.9974H14.7873V30.3987Z" fill="#20571F"/>
<path d="M12.6747 30.3987H10.5623V31.9974H12.6747V30.3987Z" fill="#20571F"/>
<path d="M10.5624 30.3987H8.44995V31.9974H10.5624V30.3987Z" fill="#20571F"/>
<path d="M8.44987 30.3987H6.3374V31.9974H8.44987V30.3987Z" fill="#20571F"/>
<path d="M54.924 28.8H52.8115V30.3988H54.924V28.8Z" fill="#2C8B2F"/>
<path d="M52.8117 28.8H50.6992V30.3988H52.8117V28.8Z" fill="#2C8B2F"/>
<path d="M50.6994 28.8H48.5869V30.3988H50.6994V28.8Z" fill="#2C8B2F"/>
<path d="M48.5866 28.8H46.4741V30.3988H48.5866V28.8Z" fill="#255125"/>
<path d="M46.4743 28.8H44.3618V30.3988H46.4743V28.8Z" fill="#143214"/>
<path d="M44.362 28.8H42.2495V30.3988H44.362V28.8Z" fill="#0D350C"/>
<path d="M42.2492 28.8H40.1367V30.3988H42.2492V28.8Z" fill="#174516"/>
<path d="M40.1369 28.8H38.0244V30.3988H40.1369V28.8Z" fill="#174516"/>
<path d="M38.0246 28.8H35.9121V30.3988H38.0246V28.8Z" fill="#174516"/>
<path d="M35.9118 28.8H33.7993V30.3988H35.9118V28.8Z" fill="#174516"/>
<path d="M33.7995 28.8H31.687V30.3988H33.7995V28.8Z" fill="#2C8B2F"/>
<path d="M31.6872 28.8H29.5747V30.3988H31.6872V28.8Z" fill="#2C8B2F"/>
<path d="M29.5744 28.8H27.4619V30.3988H29.5744V28.8Z" fill="#1E8021"/>
<path d="M27.4621 28.8H25.3496V30.3988H27.4621V28.8Z" fill="#2C8B2F"/>
<path d="M25.3495 28.8H23.2371V30.3988H25.3495V28.8Z" fill="#2C8B2F"/>
<path d="M23.237 28.8H21.1245V30.3988H23.237V28.8Z" fill="#2C8B2F"/>
<path d="M21.1247 28.8H19.0122V30.3988H21.1247V28.8Z" fill="#1E8021"/>
<path d="M19.0121 28.8H16.8997V30.3988H19.0121V28.8Z" fill="#2C8B2F"/>
<path d="M16.8996 28.8H14.7871V30.3988H16.8996V28.8Z" fill="#20571F"/>
<path d="M14.7873 28.8H12.6748V30.3988H14.7873V28.8Z" fill="#20571F"/>
<path d="M12.6747 28.8H10.5623V30.3988H12.6747V28.8Z" fill="#20571F"/>
<path d="M10.5624 28.8H8.44995V30.3988H10.5624V28.8Z" fill="#20571F"/>
<path d="M8.44987 28.8H6.3374V30.3988H8.44987V28.8Z" fill="#20571F"/>
<path d="M54.924 27.2013H52.8115V28.8H54.924V27.2013Z" fill="#2C8B2F"/>
<path d="M52.8117 27.2013H50.6992V28.8H52.8117V27.2013Z" fill="#1E8021"/>
<path d="M50.6994 27.2013H48.5869V28.8H50.6994V27.2013Z" fill="#2C8B2F"/>
<path d="M48.5866 27.2013H46.4741V28.8H48.5866V27.2013Z" fill="#255125"/>
<path d="M46.4743 27.2013H44.3618V28.8H46.4743V27.2013Z" fill="#143214"/>
<path d="M44.362 27.2013H42.2495V28.8H44.362V27.2013Z" fill="#174516"/>
<path d="M42.2492 27.2013H40.1367V28.8H42.2492V27.2013Z" fill="#174516"/>
<path d="M40.1369 27.2013H38.0244V28.8H40.1369V27.2013Z" fill="#0D350C"/>
<path d="M38.0246 27.2013H35.9121V28.8H38.0246V27.2013Z" fill="#174516"/>
<path d="M35.9118 27.2013H33.7993V28.8H35.9118V27.2013Z" fill="#174516"/>
<path d="M33.7995 27.2013H31.687V28.8H33.7995V27.2013Z" fill="#2C8B2F"/>
<path d="M31.6872 27.2013H29.5747V28.8H31.6872V27.2013Z" fill="#2C8B2F"/>
<path d="M29.5744 27.2013H27.4619V28.8H29.5744V27.2013Z" fill="#2C8B2F"/>
<path d="M27.4621 27.2013H25.3496V28.8H27.4621V27.2013Z" fill="#2C8B2F"/>
<path d="M25.3495 27.2013H23.2371V28.8H25.3495V27.2013Z" fill="#1E8021"/>
<path d="M23.237 27.2013H21.1245V28.8H23.237V27.2013Z" fill="#2C8B2F"/>
<path d="M21.1247 27.2013H19.0122V28.8H21.1247V27.2013Z" fill="#2C8B2F"/>
<path d="M19.0121 27.2013H16.8997V28.8H19.0121V27.2013Z" fill="#2C8B2F"/>
<path d="M16.8996 27.2013H14.7871V28.8H16.8996V27.2013Z" fill="#20571F"/>
<path d="M14.7873 27.2013H12.6748V28.8H14.7873V27.2013Z" fill="#174516"/>
<path d="M12.6747 27.2013H10.5623V28.8H12.6747V27.2013Z" fill="#20571F"/>
<path d="M10.5624 27.2013H8.44995V28.8H10.5624V27.2013Z" fill="#174516"/>
<path d="M8.44987 27.2013H6.3374V28.8H8.44987V27.2013Z" fill="#20571F"/>
<path d="M54.924 25.5988H52.8115V27.1975H54.924V25.5988Z" fill="#2C8B2F"/>
<path d="M52.8117 25.5988H50.6992V27.1975H52.8117V25.5988Z" fill="#2C8B2F"/>
<path d="M50.6994 25.5988H48.5869V27.1975H50.6994V25.5988Z" fill="#2C8B2F"/>
<path d="M48.5866 25.5988H46.4741V27.1975H48.5866V25.5988Z" fill="#255125"/>
<path d="M46.4743 25.5988H44.3618V27.1975H46.4743V25.5988Z" fill="#143214"/>
<path d="M44.362 25.5988H42.2495V27.1975H44.362V25.5988Z" fill="#174516"/>
<path d="M42.2492 25.5988H40.1367V27.1975H42.2492V25.5988Z" fill="#174516"/>
<path d="M40.1369 25.5988H38.0244V27.1975H40.1369V25.5988Z" fill="#174516"/>
<path d="M38.0246 25.5988H35.9121V27.1975H38.0246V25.5988Z" fill="#174516"/>
<path d="M35.9118 25.5988H33.7993V27.1975H35.9118V25.5988Z" fill="#174516"/>
<path d="M33.7995 25.5988H31.687V27.1975H33.7995V25.5988Z" fill="#2C8B2F"/>
<path d="M31.6872 25.5988H29.5747V27.1975H31.6872V25.5988Z" fill="#1E8021"/>
<path d="M29.5744 25.5988H27.4619V27.1975H29.5744V25.5988Z" fill="#2C8B2F"/>
<path d="M27.4621 25.5988H25.3496V27.1975H27.4621V25.5988Z" fill="#2C8B2F"/>
<path d="M25.3495 25.5988H23.2371V27.1975H25.3495V25.5988Z" fill="#2C8B2F"/>
<path d="M23.237 25.5988H21.1245V27.1975H23.237V25.5988Z" fill="#1E8021"/>
<path d="M21.1247 25.5988H19.0122V27.1975H21.1247V25.5988Z" fill="#2C8B2F"/>
<path d="M19.0121 25.5988H16.8997V27.1975H19.0121V25.5988Z" fill="#2C8B2F"/>
<path d="M16.8996 25.5988H14.7871V27.1975H16.8996V25.5988Z" fill="#20571F"/>
<path d="M14.7873 25.5988H12.6748V27.1975H14.7873V25.5988Z" fill="#20571F"/>
<path d="M12.6747 25.5988H10.5623V27.1975H12.6747V25.5988Z" fill="#174516"/>
<path d="M10.5624 25.5988H8.44995V27.1975H10.5624V25.5988Z" fill="#20571F"/>
<path d="M8.44987 25.5988H6.3374V27.1975H8.44987V25.5988Z" fill="#20571F"/>
<path d="M54.924 24H52.8115V25.5987H54.924V24Z" fill="#2C8B2F"/>
<path d="M52.8117 24H50.6992V25.5987H52.8117V24Z" fill="#2C8B2F"/>
<path d="M50.6994 24H48.5869V25.5987H50.6994V24Z" fill="#2C8B2F"/>
<path d="M48.5866 24H46.4741V25.5987H48.5866V24Z" fill="#255125"/>
<path d="M46.4743 24H44.3618V25.5987H46.4743V24Z" fill="#0C2F0B"/>
<path d="M44.362 24H42.2495V25.5987H44.362V24Z" fill="#0C2F0B"/>
<path d="M42.2492 24H40.1367V25.5987H42.2492V24Z" fill="#0C2F0B"/>
<path d="M40.1369 24H38.0244V25.5987H40.1369V24Z" fill="#0C2F0B"/>
<path d="M38.0246 24H35.9121V25.5987H38.0246V24Z" fill="#0C2F0B"/>
<path d="M35.9118 24H33.7993V25.5987H35.9118V24Z" fill="#0C2F0B"/>
<path d="M33.7995 24H31.687V25.5987H33.7995V24Z" fill="#2C8B2F"/>
<path d="M31.6872 24H29.5747V25.5987H31.6872V24Z" fill="#2C8B2F"/>
<path d="M29.5744 24H27.4619V25.5987H29.5744V24Z" fill="#1E8021"/>
<path d="M27.4621 24H25.3496V25.5987H27.4621V24Z" fill="#2C8B2F"/>
<path d="M25.3495 24H23.2371V25.5987H25.3495V24Z" fill="#2C8B2F"/>
<path d="M23.237 24H21.1245V25.5987H23.237V24Z" fill="#2C8B2F"/>
<path d="M21.1247 24H19.0122V25.5987H21.1247V24Z" fill="#2C8B2F"/>
<path d="M19.0121 24H16.8997V25.5987H19.0121V24Z" fill="#1E8021"/>
<path d="M16.8996 24H14.7871V25.5987H16.8996V24Z" fill="#20571F"/>
<path d="M14.7873 24H12.6748V25.5987H14.7873V24Z" fill="#20571F"/>
<path d="M12.6747 24H10.5623V25.5987H12.6747V24Z" fill="#20571F"/>
<path d="M10.5624 24H8.44995V25.5987H10.5624V24Z" fill="#174516"/>
<path d="M8.44987 24H6.3374V25.5987H8.44987V24Z" fill="#20571F"/>
<path d="M54.924 22.4012H52.8115V24H54.924V22.4012Z" fill="#1E8021"/>
<path d="M52.8117 22.4012H50.6992V24H52.8117V22.4012Z" fill="#2C8B2F"/>
<path d="M50.6994 22.4012H48.5869V24H50.6994V22.4012Z" fill="#2C8B2F"/>
<path d="M48.5866 22.4012H46.4741V24H48.5866V22.4012Z" fill="#2C8B2F"/>
<path d="M46.4743 22.4012H44.3618V24H46.4743V22.4012Z" fill="#2C8B2F"/>
<path d="M44.362 22.4012H42.2495V24H44.362V22.4012Z" fill="#1E8021"/>
<path d="M42.2492 22.4012H40.1367V24H42.2492V22.4012Z" fill="#2C8B2F"/>
<path d="M40.1369 22.4012H38.0244V24H40.1369V22.4012Z" fill="#2C8B2F"/>
<path d="M38.0246 22.4012H35.9121V24H38.0246V22.4012Z" fill="#2C8B2F"/>
<path d="M35.9118 22.4012H33.7993V24H35.9118V22.4012Z" fill="#2C8B2F"/>
<path d="M33.7995 22.4012H31.687V24H33.7995V22.4012Z" fill="#1E8021"/>
<path d="M31.6872 22.4012H29.5747V24H31.6872V22.4012Z" fill="#2C8B2F"/>
<path d="M29.5744 22.4012H27.4619V24H29.5744V22.4012Z" fill="#2C8B2F"/>
<path d="M27.4621 22.4012H25.3496V24H27.4621V22.4012Z" fill="#2C8B2F"/>
<path d="M25.3495 22.4012H23.2371V24H25.3495V22.4012Z" fill="#2C8B2F"/>
<path d="M23.237 22.4012H21.1245V24H23.237V22.4012Z" fill="#2C8B2F"/>
<path d="M21.1247 22.4012H19.0122V24H21.1247V22.4012Z" fill="#1E8021"/>
<path d="M19.0121 22.4012H16.8997V24H19.0121V22.4012Z" fill="#2C8B2F"/>
<path d="M16.8996 22.4012H14.7871V24H16.8996V22.4012Z" fill="#20571F"/>
<path d="M14.7873 22.4012H12.6748V24H14.7873V22.4012Z" fill="#174516"/>
<path d="M12.6747 22.4012H10.5623V24H12.6747V22.4012Z" fill="#20571F"/>
<path d="M10.5624 22.4012H8.44995V24H10.5624V22.4012Z" fill="#20571F"/>
<path d="M8.44987 22.4012H6.3374V24H8.44987V22.4012Z" fill="#174516"/>
<path d="M54.924 20.7988H52.8115V22.3975H54.924V20.7988Z" fill="#2C8B2F"/>
<path d="M52.8117 20.7988H50.6992V22.3975H52.8117V20.7988Z" fill="#2C8B2F"/>
<path d="M50.6994 20.7988H48.5869V22.3975H50.6994V20.7988Z" fill="#1E8021"/>
<path d="M48.5866 20.7988H46.4741V22.3975H48.5866V20.7988Z" fill="#2C8B2F"/>
<path d="M46.4743 20.7988H44.3618V22.3975H46.4743V20.7988Z" fill="#2C8B2F"/>
<path d="M44.362 20.7988H42.2495V22.3975H44.362V20.7988Z" fill="#2C8B2F"/>
<path d="M42.2492 20.7988H40.1367V22.3975H42.2492V20.7988Z" fill="#1E8021"/>
<path d="M40.1369 20.7988H38.0244V22.3975H40.1369V20.7988Z" fill="#2C8B2F"/>
<path d="M38.0246 20.7988H35.9121V22.3975H38.0246V20.7988Z" fill="#1E8021"/>
<path d="M35.9118 20.7988H33.7993V22.3975H35.9118V20.7988Z" fill="#2C8B2F"/>
<path d="M33.7995 20.7988H31.687V22.3975H33.7995V20.7988Z" fill="#2C8B2F"/>
<path d="M31.6872 20.7988H29.5747V22.3975H31.6872V20.7988Z" fill="#2C8B2F"/>
<path d="M29.5744 20.7988H27.4619V22.3975H29.5744V20.7988Z" fill="#1E8021"/>
<path d="M27.4621 20.7988H25.3496V22.3975H27.4621V20.7988Z" fill="#2C8B2F"/>
<path d="M25.3495 20.7988H23.2371V22.3975H25.3495V20.7988Z" fill="#1E8021"/>
<path d="M23.237 20.7988H21.1245V22.3975H23.237V20.7988Z" fill="#2C8B2F"/>
<path d="M21.1247 20.7988H19.0122V22.3975H21.1247V20.7988Z" fill="#2C8B2F"/>
<path d="M19.0121 20.7988H16.8997V22.3975H19.0121V20.7988Z" fill="#2C8B2F"/>
<path d="M16.8996 20.7988H14.7871V22.3975H16.8996V20.7988Z" fill="#20571F"/>
<path d="M14.7873 20.7988H12.6748V22.3975H14.7873V20.7988Z" fill="#20571F"/>
<path d="M12.6747 20.7988H10.5623V22.3975H12.6747V20.7988Z" fill="#174516"/>
<path d="M10.5624 20.7988H8.44995V22.3975H10.5624V20.7988Z" fill="#20571F"/>
<path d="M8.44987 20.7988H6.3374V22.3975H8.44987V20.7988Z" fill="#20571F"/>
<path d="M54.924 19.2H52.8115V20.7987H54.924V19.2Z" fill="#2C8B2F"/>
<path d="M52.8117 19.2H50.6992V20.7987H52.8117V19.2Z" fill="#2C8B2F"/>
<path d="M50.6994 19.2H48.5869V20.7987H50.6994V19.2Z" fill="#2C8B2F"/>
<path d="M48.5866 19.2H46.4741V20.7987H48.5866V19.2Z" fill="#1E8021"/>
<path d="M46.4743 19.2H44.3618V20.7987H46.4743V19.2Z" fill="#2C8B2F"/>
<path d="M44.362 19.2H42.2495V20.7987H44.362V19.2Z" fill="#2C8B2F"/>
<path d="M42.2492 19.2H40.1367V20.7987H42.2492V19.2Z" fill="#2C8B2F"/>
<path d="M40.1369 19.2H38.0244V20.7987H40.1369V19.2Z" fill="#2C8B2F"/>
<path d="M38.0246 19.2H35.9121V20.7987H38.0246V19.2Z" fill="#2C8B2F"/>
<path d="M35.9118 19.2H33.7993V20.7987H35.9118V19.2Z" fill="#2C8B2F"/>
<path d="M33.7995 19.2H31.687V20.7987H33.7995V19.2Z" fill="#2C8B2F"/>
<path d="M31.6872 19.2H29.5747V20.7987H31.6872V19.2Z" fill="#2C8B2F"/>
<path d="M29.5744 19.2H27.4619V20.7987H29.5744V19.2Z" fill="#2C8B2F"/>
<path d="M27.4621 19.2H25.3496V20.7987H27.4621V19.2Z" fill="#1E8021"/>
<path d="M25.3495 19.2H23.2371V20.7987H25.3495V19.2Z" fill="#2C8B2F"/>
<path d="M23.237 19.2H21.1245V20.7987H23.237V19.2Z" fill="#2C8B2F"/>
<path d="M21.1247 19.2H19.0122V20.7987H21.1247V19.2Z" fill="#2C8B2F"/>
<path d="M19.0121 19.2H16.8997V20.7987H19.0121V19.2Z" fill="#3C983F"/>
<path d="M6.33756 19.2H4.2251V20.7987H6.33756V19.2Z" fill="#0F3510"/>
<path d="M4.22501 19.2H2.11255V20.7987H4.22501V19.2Z" fill="#0F3510"/>
<path d="M61.2614 17.6012H59.1489V19.2H61.2614V17.6012Z" fill="#0F3510"/>
<path d="M52.8117 17.6012H50.6992V19.2H52.8117V17.6012Z" fill="#3F8F41"/>
<path d="M50.6994 17.6012H48.5869V19.2H50.6994V17.6012Z" fill="#2C8B2F"/>
<path d="M48.5866 17.6012H46.4741V19.2H48.5866V17.6012Z" fill="#2C8B2F"/>
<path d="M46.4743 17.6012H44.3618V19.2H46.4743V17.6012Z" fill="#2C8B2F"/>
<path d="M44.362 17.6012H42.2495V19.2H44.362V17.6012Z" fill="#2C8B2F"/>
<path d="M42.2492 17.6012H40.1367V19.2H42.2492V17.6012Z" fill="#2C8B2F"/>
<path d="M40.1369 17.6012H38.0244V19.2H40.1369V17.6012Z" fill="#2C8B2F"/>
<path d="M38.0246 17.6012H35.9121V19.2H38.0246V17.6012Z" fill="#2C8B2F"/>
<path d="M35.9118 17.6012H33.7993V19.2H35.9118V17.6012Z" fill="#2C8B2F"/>
<path d="M33.7995 17.6012H31.687V19.2H33.7995V17.6012Z" fill="#1E8021"/>
<path d="M31.6872 17.6012H29.5747V19.2H31.6872V17.6012Z" fill="#2C8B2F"/>
<path d="M29.5744 17.6012H27.4619V19.2H29.5744V17.6012Z" fill="#2C8B2F"/>
<path d="M27.4621 17.6012H25.3496V19.2H27.4621V17.6012Z" fill="#2C8B2F"/>
<path d="M25.3495 17.6012H23.2371V19.2H25.3495V17.6012Z" fill="#2C8B2F"/>
<path d="M23.237 17.6012H21.1245V19.2H23.237V17.6012Z" fill="#2C8B2F"/>
<path d="M21.1247 17.6012H19.0122V19.2H21.1247V17.6012Z" fill="#2C8B2F"/>
<path d="M12.6747 17.6012H10.5623V19.2H12.6747V17.6012Z" fill="#0F3510"/>
<path d="M10.5624 17.6012H8.44995V19.2H10.5624V17.6012Z" fill="#0F3510"/>
<path d="M8.44987 17.6012H6.3374V19.2H8.44987V17.6012Z" fill="#0F3510"/>
<path d="M6.33756 17.6012H4.2251V19.2H6.33756V17.6012Z" fill="#0F3510"/>
<path d="M4.22501 17.6012H2.11255V19.2H4.22501V17.6012Z" fill="#0F3510"/>
<path d="M2.11247 17.6012H0V19.2H2.11247V17.6012Z" fill="#0F3510"/>
<path d="M63.3742 15.9987H61.2617V17.5975H63.3742V15.9987Z" fill="#0F3510"/>
<path d="M61.2614 15.9987H59.1489V17.5975H61.2614V15.9987Z" fill="#0F3510"/>
<path d="M59.1491 15.9987H57.0366V17.5975H59.1491V15.9987Z" fill="#0F3510"/>
<path d="M50.6994 15.9987H48.5869V17.5975H50.6994V15.9987Z" fill="#2C8B2F"/>
<path d="M48.5866 15.9987H46.4741V17.5975H48.5866V15.9987Z" fill="#2C8B2F"/>
<path d="M46.4743 15.9987H44.3618V17.5975H46.4743V15.9987Z" fill="#2C8B2F"/>
<path d="M44.362 15.9987H42.2495V17.5975H44.362V15.9987Z" fill="#2C8B2F"/>
<path d="M42.2492 15.9987H40.1367V17.5975H42.2492V15.9987Z" fill="#2C8B2F"/>
<path d="M40.1369 15.9987H38.0244V17.5975H40.1369V15.9987Z" fill="#2C8B2F"/>
<path d="M38.0246 15.9987H35.9121V17.5975H38.0246V15.9987Z" fill="#1E8021"/>
<path d="M35.9118 15.9987H33.7993V17.5975H35.9118V15.9987Z" fill="#2C8B2F"/>
<path d="M33.7995 15.9987H31.687V17.5975H33.7995V15.9987Z" fill="#2C8B2F"/>
<path d="M31.6872 15.9987H29.5747V17.5975H31.6872V15.9987Z" fill="#1E8021"/>
<path d="M29.5744 15.9987H27.4619V17.5975H29.5744V15.9987Z" fill="#2C8B2F"/>
<path d="M27.4621 15.9987H25.3496V17.5975H27.4621V15.9987Z" fill="#2C8B2F"/>
<path d="M25.3495 15.9987H23.2371V17.5975H25.3495V15.9987Z" fill="#2C8B2F"/>
<path d="M16.8996 15.9987H14.7871V17.5975H16.8996V15.9987Z" fill="#165719"/>
<path d="M14.7873 15.9987H12.6748V17.5975H14.7873V15.9987Z" fill="#0F3510"/>
<path d="M12.6747 15.9987H10.5623V17.5975H12.6747V15.9987Z" fill="#0F3510"/>
<path d="M10.5624 15.9987H8.44995V17.5975H10.5624V15.9987Z" fill="#0F3510"/>
<path d="M8.44987 15.9987H6.3374V17.5975H8.44987V15.9987Z" fill="#0F3510"/>
<path d="M6.33756 15.9987H4.2251V17.5975H6.33756V15.9987Z" fill="#0F3510"/>
<path d="M4.22501 15.9987H2.11255V17.5975H4.22501V15.9987Z" fill="#1F5020"/>
<path d="M2.11247 15.9987H0V17.5975H2.11247V15.9987Z" fill="#346D35"/>
<path d="M61.2614 14.4H59.1489V15.9987H61.2614V14.4Z" fill="#0F3510"/>
<path d="M59.1491 14.4H57.0366V15.9987H59.1491V14.4Z" fill="#0F3510"/>
<path d="M57.0363 14.4H54.9238V15.9987H57.0363V14.4Z" fill="#0F3510"/>
<path d="M46.4743 14.4H44.3618V15.9987H46.4743V14.4Z" fill="#2C8B2F"/>
<path d="M44.362 14.4H42.2495V15.9987H44.362V14.4Z" fill="#2C8B2F"/>
<path d="M42.2492 14.4H40.1367V15.9987H42.2492V14.4Z" fill="#1E8021"/>
<path d="M40.1369 14.4H38.0244V15.9987H40.1369V14.4Z" fill="#2C8B2F"/>
<path d="M38.0246 14.4H35.9121V15.9987H38.0246V14.4Z" fill="#2C8B2F"/>
<path d="M35.9118 14.4H33.7993V15.9987H35.9118V14.4Z" fill="#1E8021"/>
<path d="M33.7995 14.4H31.687V15.9987H33.7995V14.4Z" fill="#2C8B2F"/>
<path d="M31.6872 14.4H29.5747V15.9987H31.6872V14.4Z" fill="#2C8B2F"/>
<path d="M29.5744 14.4H27.4619V15.9987H29.5744V14.4Z" fill="#2C8B2F"/>
<path d="M27.4621 14.4H25.3496V15.9987H27.4621V14.4Z" fill="#2C8B2F"/>
<path d="M19.0121 14.4H16.8997V15.9987H19.0121V14.4Z" fill="#0F3510"/>
<path d="M16.8996 14.4H14.7871V15.9987H16.8996V14.4Z" fill="#0F3510"/>
<path d="M14.7873 14.4H12.6748V15.9987H14.7873V14.4Z" fill="#0F3510"/>
<path d="M12.6747 14.4H10.5623V15.9987H12.6747V14.4Z" fill="#0F3510"/>
<path d="M10.5624 14.4H8.44995V15.9987H10.5624V14.4Z" fill="#176319"/>
<path d="M8.44987 14.4H6.3374V15.9987H8.44987V14.4Z" fill="#176319"/>
<path d="M6.33756 14.4H4.2251V15.9987H6.33756V14.4Z" fill="#176319"/>
<path d="M4.22501 14.4H2.11255V15.9987H4.22501V14.4Z" fill="#316D32"/>
<path d="M59.1491 12.8013H57.0366V14.4H59.1491V12.8013Z" fill="#0F3510"/>
<path d="M57.0363 12.8013H54.9238V14.4H57.0363V12.8013Z" fill="#0F3510"/>
<path d="M54.924 12.8013H52.8115V14.4H54.924V12.8013Z" fill="#0F3510"/>
<path d="M52.8117 12.8013H50.6992V14.4H52.8117V12.8013Z" fill="#0F3510"/>
<path d="M44.362 12.8013H42.2495V14.4H44.362V12.8013Z" fill="#2C8B2F"/>
<path d="M42.2492 12.8013H40.1367V14.4H42.2492V12.8013Z" fill="#2C8B2F"/>
<path d="M40.1369 12.8013H38.0244V14.4H40.1369V12.8013Z" fill="#1E8021"/>
<path d="M38.0246 12.8013H35.9121V14.4H38.0246V12.8013Z" fill="#2C8B2F"/>
<path d="M35.9118 12.8013H33.7993V14.4H35.9118V12.8013Z" fill="#2C8B2F"/>
<path d="M33.7995 12.8013H31.687V14.4H33.7995V12.8013Z" fill="#2C8B2F"/>
<path d="M31.6872 12.8013H29.5747V14.4H31.6872V12.8013Z" fill="#2C8B2F"/>
<path d="M29.5744 12.8013H27.4619V14.4H29.5744V12.8013Z" fill="#2C8B2F"/>
<path d="M21.1247 12.8013H19.0122V14.4H21.1247V12.8013Z" fill="#0F3510"/>
<path d="M19.0121 12.8013H16.8997V14.4H19.0121V12.8013Z" fill="#0F3510"/>
<path d="M16.8996 12.8013H14.7871V14.4H16.8996V12.8013Z" fill="#0F3510"/>
<path d="M14.7873 12.8013H12.6748V14.4H14.7873V12.8013Z" fill="#0C560E"/>
<path d="M12.6747 12.8013H10.5623V14.4H12.6747V12.8013Z" fill="#176319"/>
<path d="M10.5624 12.8013H8.44995V14.4H10.5624V12.8013Z" fill="#176319"/>
<path d="M8.44987 12.8013H6.3374V14.4H8.44987V12.8013Z" fill="#176319"/>
<path d="M54.924 11.1987H52.8115V12.7975H54.924V11.1987Z" fill="#0F3510"/>
<path d="M52.8117 11.1987H50.6992V12.7975H52.8117V11.1987Z" fill="#0F3510"/>
<path d="M50.6994 11.1987H48.5869V12.7975H50.6994V11.1987Z" fill="#0F3510"/>
<path d="M42.2492 11.1987H40.1367V12.7975H42.2492V11.1987Z" fill="#2C8B2F"/>
<path d="M40.1369 11.1987H38.0244V12.7975H40.1369V11.1987Z" fill="#2C8B2F"/>
<path d="M38.0246 11.1987H35.9121V12.7975H38.0246V11.1987Z" fill="#2C8B2F"/>
<path d="M35.9118 11.1987H33.7993V12.7975H35.9118V11.1987Z" fill="#2C8B2F"/>
<path d="M33.7995 11.1987H31.687V12.7975H33.7995V11.1987Z" fill="#2C8B2F"/>
<path d="M23.237 11.1987H21.1245V12.7975H23.237V11.1987Z" fill="#0F3510"/>
<path d="M21.1247 11.1987H19.0122V12.7975H21.1247V11.1987Z" fill="#0F3510"/>
<path d="M19.0121 11.1987H16.8997V12.7975H19.0121V11.1987Z" fill="#0F3510"/>
<path d="M16.8996 11.1987H14.7871V12.7975H16.8996V11.1987Z" fill="#176319"/>
<path d="M14.7873 11.1987H12.6748V12.7975H14.7873V11.1987Z" fill="#176319"/>
<path d="M12.6747 11.1987H10.5623V12.7975H12.6747V11.1987Z" fill="#176319"/>
<path d="M10.5624 11.1987H8.44995V12.7975H10.5624V11.1987Z" fill="#176319"/>
<path d="M52.8117 9.60002H50.6992V11.1988H52.8117V9.60002Z" fill="#0F3510"/>
<path d="M50.6994 9.60002H48.5869V11.1988H50.6994V9.60002Z" fill="#0F3510"/>
<path d="M48.5866 9.60002H46.4741V11.1988H48.5866V9.60002Z" fill="#0F3510"/>
<path d="M38.0246 9.60002H35.9121V11.1988H38.0246V9.60002Z" fill="#2C8B2F"/>
<path d="M35.9118 9.60002H33.7993V11.1988H35.9118V9.60002Z" fill="#2C8B2F"/>
<path d="M27.4621 9.60002H25.3496V11.1988H27.4621V9.60002Z" fill="#0F3510"/>
<path d="M25.3495 9.60002H23.2371V11.1988H25.3495V9.60002Z" fill="#0F3510"/>
<path d="M23.237 9.60002H21.1245V11.1988H23.237V9.60002Z" fill="#0F3510"/>
<path d="M21.1247 9.60002H19.0122V11.1988H21.1247V9.60002Z" fill="#0F3510"/>
<path d="M19.0121 9.60002H16.8997V11.1988H19.0121V9.60002Z" fill="#176319"/>
<path d="M16.8996 9.60002H14.7871V11.1988H16.8996V9.60002Z" fill="#0F3510"/>
<path d="M14.7873 9.60002H12.6748V11.1988H14.7873V9.60002Z" fill="#0F3510"/>
<path d="M12.6747 9.60002H10.5623V11.1988H12.6747V9.60002Z" fill="#176319"/>
<path d="M50.6994 8.00122H48.5869V9.59996H50.6994V8.00122Z" fill="#0F3510"/>
<path d="M48.5866 8.00122H46.4741V9.59996H48.5866V8.00122Z" fill="#0F3510"/>
<path d="M46.4743 8.00122H44.3618V9.59996H46.4743V8.00122Z" fill="#0F3510"/>
<path d="M44.362 8.00122H42.2495V9.59996H44.362V8.00122Z" fill="#1A4D1C"/>
<path d="M29.5744 8.00122H27.4619V9.59996H29.5744V8.00122Z" fill="#0F3510"/>
<path d="M27.4621 8.00122H25.3496V9.59996H27.4621V8.00122Z" fill="#0F3510"/>
<path d="M25.3495 8.00122H23.2371V9.59996H25.3495V8.00122Z" fill="#0F3510"/>
<path d="M23.237 8.00122H21.1245V9.59996H23.237V8.00122Z" fill="#154617"/>
<path d="M21.1247 8.00122H19.0122V9.59996H21.1247V8.00122Z" fill="#176319"/>
<path d="M19.0121 8.00122H16.8997V9.59996H19.0121V8.00122Z" fill="#0F3510"/>
<path d="M16.8996 8.00122H14.7871V9.59996H16.8996V8.00122Z" fill="#0F3510"/>
<path d="M14.7873 8.00122H12.6748V9.59996H14.7873V8.00122Z" fill="#0F3510"/>
<path d="M12.6747 8.00122H10.5623V9.59996H12.6747V8.00122Z" fill="#176319"/>
<path d="M48.5866 6.3987H46.4741V7.99744H48.5866V6.3987Z" fill="#0F3510"/>
<path d="M46.4743 6.3987H44.3618V7.99744H46.4743V6.3987Z" fill="#0F3510"/>
<path d="M44.362 6.3987H42.2495V7.99744H44.362V6.3987Z" fill="#0F3510"/>
<path d="M42.2492 6.3987H40.1367V7.99744H42.2492V6.3987Z" fill="#0F3510"/>
<path d="M31.6872 6.3987H29.5747V7.99744H31.6872V6.3987Z" fill="#0F3510"/>
<path d="M29.5744 6.3987H27.4619V7.99744H29.5744V6.3987Z" fill="#0F3510"/>
<path d="M27.4621 6.3987H25.3496V7.99744H27.4621V6.3987Z" fill="#0F3510"/>
<path d="M25.3495 6.3987H23.2371V7.99744H25.3495V6.3987Z" fill="#1A541B"/>
<path d="M23.237 6.3987H21.1245V7.99744H23.237V6.3987Z" fill="#176319"/>
<path d="M21.1247 6.3987H19.0122V7.99744H21.1247V6.3987Z" fill="#176319"/>
<path d="M19.0121 6.3987H16.8997V7.99744H19.0121V6.3987Z" fill="#0F3510"/>
<path d="M16.8996 6.3987H14.7871V7.99744H16.8996V6.3987Z" fill="#0B4D0C"/>
<path d="M14.7873 6.3987H12.6748V7.99744H14.7873V6.3987Z" fill="#0F3510"/>
<path d="M12.6747 6.3987H10.5623V7.99744H12.6747V6.3987Z" fill="#176319"/>
<path d="M44.362 4.8H42.2495V6.39874H44.362V4.8Z" fill="#0F3510"/>
<path d="M42.2492 4.8H40.1367V6.39874H42.2492V4.8Z" fill="#0F3510"/>
<path d="M40.1369 4.8H38.0244V6.39874H40.1369V4.8Z" fill="#0F3510"/>
<path d="M35.9118 4.8H33.7993V6.39874H35.9118V4.8Z" fill="#1A4D1C"/>
<path d="M33.7995 4.8H31.687V6.39874H33.7995V4.8Z" fill="#0F3510"/>
<path d="M31.6872 4.8H29.5747V6.39874H31.6872V4.8Z" fill="#0F3510"/>
<path d="M29.5744 4.8H27.4619V6.39874H29.5744V4.8Z" fill="#0F3510"/>
<path d="M27.4621 4.8H25.3496V6.39874H27.4621V4.8Z" fill="#176319"/>
<path d="M25.3495 4.8H23.2371V6.39874H25.3495V4.8Z" fill="#176319"/>
<path d="M23.237 4.8H21.1245V6.39874H23.237V4.8Z" fill="#176319"/>
<path d="M21.1247 4.8H19.0122V6.39874H21.1247V4.8Z" fill="#176319"/>
<path d="M19.0121 4.8H16.8997V6.39874H19.0121V4.8Z" fill="#0B4D0C"/>
<path d="M16.8996 4.8H14.7871V6.39874H16.8996V4.8Z" fill="#0F3510"/>
<path d="M14.7873 4.8H12.6748V6.39874H14.7873V4.8Z" fill="#0F3510"/>
<path d="M12.6747 4.8H10.5623V6.39874H12.6747V4.8Z" fill="#176319"/>
<path d="M12.6747 3.20125H10.5623V4.79999H12.6747V3.20125Z" fill="#176319"/>
<path d="M12.6747 1.59874H10.5623V3.19748H12.6747V1.59874Z" fill="#176319"/>
<path d="M42.2492 3.20125H40.1367V4.79999H42.2492V3.20125Z" fill="#0F3510"/>
<path d="M40.1369 3.20125H38.0244V4.79999H40.1369V3.20125Z" fill="#0F3510"/>
<path d="M38.0246 3.20125H35.9121V4.79999H38.0246V3.20125Z" fill="#0F3510"/>
<path d="M35.9118 3.20125H33.7993V4.79999H35.9118V3.20125Z" fill="#0F3510"/>
<path d="M33.7995 3.20125H31.687V4.79999H33.7995V3.20125Z" fill="#0F3510"/>
<path d="M31.6872 3.20125H29.5747V4.79999H31.6872V3.20125Z" fill="#0F3510"/>
<path d="M29.5744 3.20125H27.4619V4.79999H29.5744V3.20125Z" fill="#176319"/>
<path d="M27.4621 3.20125H25.3496V4.79999H27.4621V3.20125Z" fill="#176319"/>
<path d="M25.3495 3.20125H23.2371V4.79999H25.3495V3.20125Z" fill="#176319"/>
<path d="M23.237 3.20125H21.1245V4.79999H23.237V3.20125Z" fill="#176319"/>
<path d="M19.0121 3.20125H16.8997V4.79999H19.0121V3.20125Z" fill="#0F3510"/>
<path d="M16.8996 3.20125H14.7871V4.79999H16.8996V3.20125Z" fill="#0F3510"/>
<path d="M14.7873 3.20125H12.6748V4.79999H14.7873V3.20125Z" fill="#0F3510"/>
<path d="M19.0121 1.59874H16.8997V3.19748H19.0121V1.59874Z" fill="#0F3510"/>
<path d="M16.8996 1.59874H14.7871V3.19748H16.8996V1.59874Z" fill="#0F3510"/>
<path d="M14.7873 1.59874H12.6748V3.19748H14.7873V1.59874Z" fill="#0F3510"/>
<path d="M40.1369 1.59874H38.0244V3.19748H40.1369V1.59874Z" fill="#0F3510"/>
<path d="M38.0246 1.59874H35.9121V3.19748H38.0246V1.59874Z" fill="#0F3510"/>
<path d="M35.9118 1.59874H33.7993V3.19748H35.9118V1.59874Z" fill="#0F3510"/>
<path d="M33.7995 1.59874H31.687V3.19748H33.7995V1.59874Z" fill="#1F5421"/>
<path d="M31.6872 1.59874H29.5747V3.19748H31.6872V1.59874Z" fill="#176319"/>
<path d="M29.5744 1.59874H27.4619V3.19748H29.5744V1.59874Z" fill="#176319"/>
<path d="M27.4621 1.59874H25.3496V3.19748H27.4621V1.59874Z" fill="#176319"/>
<path d="M25.3495 1.59874H23.2371V3.19748H25.3495V1.59874Z" fill="#176319"/>
<path d="M38.0246 0H35.9121V1.59874H38.0246V0Z" fill="#0F3510"/>
<path d="M35.9118 0H33.7993V1.59874H35.9118V0Z" fill="#176319"/>
</svg>
