<svg width="46" height="21" viewBox="0 0 46 21" fill="none" xmlns="http://www.w3.org/2000/svg">
<rect width="46" height="21" fill="#2C8B2F"/>
<path d="M13.1953 8.02912C13.1461 7.59209 12.9429 7.25355 12.5859 7.01349C12.2289 6.77036 11.7796 6.64879 11.2379 6.64879C10.8501 6.64879 10.5147 6.71035 10.2315 6.83345C9.94839 6.95348 9.72834 7.11967 9.57138 7.33203C9.4175 7.54131 9.34055 7.77983 9.34055 8.04759C9.34055 8.27225 9.39287 8.46615 9.49751 8.62926C9.60523 8.79238 9.74527 8.92933 9.91761 9.04013C10.093 9.14785 10.2808 9.23864 10.4808 9.3125C10.6809 9.38329 10.8732 9.44176 11.0579 9.48793L11.9812 9.72798C12.2828 9.80185 12.5921 9.90187 12.9091 10.0281C13.2261 10.1542 13.52 10.3204 13.7908 10.5266C14.0617 10.7328 14.2802 10.9883 14.4464 11.293C14.6156 11.5977 14.7003 11.9624 14.7003 12.3871C14.7003 12.9226 14.5618 13.3981 14.2848 13.8136C14.0109 14.229 13.6123 14.5568 13.0891 14.7969C12.569 15.0369 11.9396 15.157 11.201 15.157C10.4931 15.157 9.88068 15.0446 9.36364 14.82C8.84659 14.5953 8.44188 14.2768 8.1495 13.8643C7.85713 13.4489 7.69555 12.9564 7.66477 12.3871H9.09588C9.12358 12.7287 9.23438 13.0134 9.42827 13.2411C9.62524 13.4658 9.87607 13.6335 10.1808 13.7443C10.4885 13.852 10.8255 13.9059 11.1918 13.9059C11.5949 13.9059 11.9535 13.8428 12.2674 13.7166C12.5844 13.5874 12.8337 13.4089 13.0153 13.1811C13.1969 12.9503 13.2876 12.681 13.2876 12.3732C13.2876 12.0932 13.2076 11.8639 13.0476 11.6854C12.8906 11.5069 12.6767 11.3591 12.4059 11.2422C12.1381 11.1252 11.835 11.0221 11.4964 10.9329L10.3793 10.6282C9.62216 10.422 9.02202 10.1188 8.57884 9.71875C8.13873 9.31866 7.91868 8.7893 7.91868 8.13068C7.91868 7.58594 8.06641 7.11044 8.36186 6.70419C8.65732 6.29794 9.05741 5.98248 9.56215 5.75781C10.0669 5.53007 10.6362 5.41619 11.2702 5.41619C11.9104 5.41619 12.4751 5.52853 12.9645 5.7532C13.4569 5.97786 13.8447 6.28717 14.1278 6.68111C14.411 7.07197 14.5587 7.52131 14.571 8.02912H13.1953ZM19.281 15.1431C18.6162 15.1431 18.0361 14.9908 17.5406 14.6861C17.0451 14.3814 16.6604 13.9551 16.3865 13.4073C16.1125 12.8595 15.9756 12.2193 15.9756 11.4869C15.9756 10.7513 16.1125 10.1081 16.3865 9.55717C16.6604 9.00627 17.0451 8.57848 17.5406 8.27379C18.0361 7.96911 18.6162 7.81676 19.281 7.81676C19.9458 7.81676 20.5259 7.96911 21.0214 8.27379C21.5169 8.57848 21.9016 9.00627 22.1755 9.55717C22.4494 10.1081 22.5864 10.7513 22.5864 11.4869C22.5864 12.2193 22.4494 12.8595 22.1755 13.4073C21.9016 13.9551 21.5169 14.3814 21.0214 14.6861C20.5259 14.9908 19.9458 15.1431 19.281 15.1431ZM19.2856 13.9844C19.7165 13.9844 20.0735 13.8705 20.3566 13.6428C20.6398 13.415 20.849 13.1119 20.9845 12.7333C21.123 12.3548 21.1922 11.9377 21.1922 11.4822C21.1922 11.0298 21.123 10.6143 20.9845 10.2358C20.849 9.85417 20.6398 9.54794 20.3566 9.31712C20.0735 9.08629 19.7165 8.97088 19.2856 8.97088C18.8517 8.97088 18.4916 9.08629 18.2053 9.31712C17.9222 9.54794 17.7114 9.85417 17.5729 10.2358C17.4375 10.6143 17.3698 11.0298 17.3698 11.4822C17.3698 11.9377 17.4375 12.3548 17.5729 12.7333C17.7114 13.1119 17.9222 13.415 18.2053 13.6428C18.4916 13.8705 18.8517 13.9844 19.2856 13.9844ZM27.114 15.1431C26.4492 15.1431 25.8691 14.9908 25.3736 14.6861C24.8781 14.3814 24.4934 13.9551 24.2195 13.4073C23.9455 12.8595 23.8086 12.2193 23.8086 11.4869C23.8086 10.7513 23.9455 10.1081 24.2195 9.55717C24.4934 9.00627 24.8781 8.57848 25.3736 8.27379C25.8691 7.96911 26.4492 7.81676 27.114 7.81676C27.7788 7.81676 28.3589 7.96911 28.8544 8.27379C29.3499 8.57848 29.7346 9.00627 30.0085 9.55717C30.2824 10.1081 30.4194 10.7513 30.4194 11.4869C30.4194 12.2193 30.2824 12.8595 30.0085 13.4073C29.7346 13.9551 29.3499 14.3814 28.8544 14.6861C28.3589 14.9908 27.7788 15.1431 27.114 15.1431ZM27.1186 13.9844C27.5495 13.9844 27.9065 13.8705 28.1896 13.6428C28.4728 13.415 28.6821 13.1119 28.8175 12.7333C28.956 12.3548 29.0252 11.9377 29.0252 11.4822C29.0252 11.0298 28.956 10.6143 28.8175 10.2358C28.6821 9.85417 28.4728 9.54794 28.1896 9.31712C27.9065 9.08629 27.5495 8.97088 27.1186 8.97088C26.6847 8.97088 26.3246 9.08629 26.0384 9.31712C25.7552 9.54794 25.5444 9.85417 25.4059 10.2358C25.2705 10.6143 25.2028 11.0298 25.2028 11.4822C25.2028 11.9377 25.2705 12.3548 25.4059 12.7333C25.5444 13.1119 25.7552 13.415 26.0384 13.6428C26.3246 13.8705 26.6847 13.9844 27.1186 13.9844ZM33.3405 10.7898V15H31.9601V7.90909H33.2851V9.06321H33.3728C33.5359 8.68774 33.7913 8.38613 34.1391 8.15838C34.49 7.93063 34.9316 7.81676 35.464 7.81676C35.9472 7.81676 36.3704 7.91832 36.7336 8.12145C37.0967 8.3215 37.3783 8.62003 37.5784 9.01705C37.7784 9.41406 37.8785 9.90495 37.8785 10.4897V15H36.4981V10.6559C36.4981 10.1419 36.3643 9.74029 36.0965 9.45099C35.8287 9.15862 35.461 9.01243 34.9932 9.01243C34.6731 9.01243 34.3884 9.08168 34.1391 9.22017C33.8929 9.35866 33.6975 9.56179 33.5528 9.82955C33.4113 10.0942 33.3405 10.4143 33.3405 10.7898Z" fill="white"/>
</svg>
